<svg width="526" height="526" viewBox="0 0 526 526" fill="none" xmlns="http://www.w3.org/2000/svg">
<path d="M525.388 263.831L526 263L525.388 262.169C525.051 261.714 503.244 232.878 469.083 215.652C488.097 195.446 494.27 168.125 494.333 167.842L494.553 166.838L493.651 166.336C493.4 166.195 468.957 152.742 441.275 153.503C454.437 116.243 449.213 78.638 449.127 78.0575L448.978 77.0378L447.958 76.8887C447.393 76.8025 411.592 71.8292 375.25 83.8073C374.403 56.0781 359.452 32.3965 359.303 32.1533L358.746 31.2826L357.75 31.565C357.475 31.6435 330.664 39.4171 311.634 59.5296C294.589 23.862 264.294 0.964835 263.831 0.611847L263 0L262.169 0.611847C261.714 0.949147 232.878 22.7481 215.645 56.9174C195.438 37.9031 168.117 31.7297 167.842 31.667L166.838 31.4474L166.336 32.3494C166.195 32.6005 152.734 57.0508 153.503 84.7329C116.243 71.5704 78.638 76.7946 78.0575 76.8809L77.0378 77.0299L76.8887 78.0497C76.8025 78.6145 71.8292 114.423 83.8073 150.757C56.0781 151.605 32.3965 166.556 32.1533 166.705L31.2826 167.262L31.565 168.25C31.6435 168.525 39.4171 195.336 59.5217 214.366C23.862 231.411 0.964835 261.706 0.611847 262.169L0 263L0.611847 263.831C0.949147 264.286 22.7482 293.13 56.9096 310.355C37.9031 330.562 31.7297 357.875 31.667 358.15L31.4474 359.154L32.3494 359.656C32.5926 359.789 55.7173 372.536 82.4424 372.536C83.2033 372.536 83.9642 372.521 84.7251 372.505C71.5625 409.757 76.7868 447.362 76.8731 447.942L77.0221 448.962L78.0418 449.111C78.3007 449.15 85.9017 450.209 97.5503 450.209C111.411 450.209 131.006 448.711 150.75 442.201C151.597 469.93 166.548 493.611 166.697 493.847L167.254 494.717L168.25 494.435C168.525 494.357 195.336 486.583 214.366 466.47C231.404 502.122 261.69 525.027 262.161 525.372L262.992 525.984L263.824 525.372C264.279 525.035 293.114 503.236 310.348 469.067C330.554 488.081 357.868 494.255 358.15 494.317L359.154 494.537L359.656 493.635C359.797 493.384 373.258 468.934 372.497 441.259C393.159 448.562 413.93 450.209 428.434 450.209C440.083 450.209 447.684 449.15 447.942 449.111L448.962 448.962L449.111 447.942C449.198 447.378 454.171 411.577 442.193 375.235C469.922 374.387 493.604 359.436 493.847 359.287L494.717 358.73L494.435 357.742C494.357 357.468 486.591 330.664 466.478 311.634C502.13 294.596 525.027 264.302 525.372 263.831H525.388ZM457.41 210.452C457.246 210.279 457.042 210.146 456.791 210.091C456.446 210.028 456.116 209.934 455.787 209.848C455.112 209.597 454.43 209.354 453.747 209.118C451.441 208.083 449.456 206.436 448.005 204.286C445.95 201.235 445.205 197.572 445.911 193.963C447.048 188.135 452.712 184.323 458.54 185.452C463.074 186.331 466.039 190.739 465.16 195.265C464.831 196.96 463.866 198.419 462.431 199.384C461.003 200.348 459.277 200.694 457.591 200.364C454.924 199.846 453.182 197.258 453.7 194.591C454.092 192.591 456.03 191.281 458.03 191.665C459.497 191.947 460.462 193.375 460.179 194.85C459.975 195.893 458.956 196.575 457.92 196.379C457.583 196.317 457.285 196.12 457.089 195.83C456.893 195.54 456.822 195.195 456.893 194.858C456.979 194.426 457.395 194.128 457.826 194.222C458.493 194.348 459.12 193.924 459.246 193.265C459.371 192.606 458.948 191.971 458.289 191.845C457.442 191.681 456.587 191.853 455.873 192.34C455.159 192.818 454.673 193.548 454.508 194.395C454.116 196.411 455.434 198.372 457.45 198.764C459.811 199.227 462.093 197.674 462.556 195.32C463.097 192.543 461.278 189.837 458.493 189.296C455.175 188.653 451.959 190.826 451.315 194.136C450.539 198.113 453.151 201.972 457.12 202.749C459.45 203.196 461.811 202.717 463.78 201.392C465.749 200.066 467.082 198.05 467.529 195.728C468.651 189.955 464.925 184.354 459.199 183.123L490.913 169.913C488.866 177.239 481.939 198.285 466.455 214.374C463.521 212.97 460.509 211.66 457.403 210.46L457.41 210.452ZM443.534 332.405C443.856 334.045 444.475 335.567 445.338 336.939L410.369 322.537C413.357 322.812 416.307 322.953 419.225 322.953C428.92 322.953 438.184 321.494 446.915 319.047C446.593 319.439 446.287 319.839 446.005 320.27C443.589 323.855 442.71 328.17 443.534 332.413V332.405ZM409.302 325.102L444.389 339.551C442.773 339.904 441.22 340.556 439.808 341.505C435.596 344.344 433.156 348.831 432.748 353.53C426.967 343.199 419.335 333.433 409.31 325.102H409.302ZM322.263 397.544C320.851 396.492 314.701 390.845 320.388 375.87C324.616 378.302 329.166 380.396 334.045 382.106C333.26 385.628 330.24 396.304 322.271 397.544H322.263ZM339.646 444.216L325.11 409.318C333.417 419.303 343.144 426.912 353.428 432.686C348.792 433.14 344.383 435.58 341.575 439.737C340.642 441.118 339.999 442.64 339.646 444.216ZM297.02 397.395C299.248 392.743 300.997 388.052 302.268 383.346C317.046 389.958 316.639 398.257 316.356 400.03C309.783 404.846 299.962 399.277 297.02 397.395ZM209.769 400.038C209.518 398.297 209.157 389.966 223.748 383.393C225.018 388.099 226.776 392.79 229.011 397.449C225.968 399.387 216.28 404.799 209.769 400.038ZM184.488 439.8C181.648 435.596 177.161 433.148 172.462 432.74C182.785 426.959 192.551 419.343 200.882 409.326L186.433 444.397C186.088 442.797 185.452 441.236 184.488 439.8ZM192.018 382.09C196.889 380.373 201.431 378.278 205.651 375.854C211.44 390.994 205.275 396.571 203.823 397.63C195.767 396.383 192.763 385.511 192.018 382.09ZM175.577 388.782C175.577 387.981 175.561 387.15 175.514 386.287C180.526 385.44 185.295 384.271 189.814 382.812C193.265 398.43 186.425 403.034 184.84 403.866C178.189 401.834 176.181 393.386 175.577 388.789V388.782ZM93.3223 353.428C92.8674 348.792 90.4278 344.376 86.2704 341.575C84.8898 340.642 83.368 339.999 81.7835 339.646L116.714 325.095C106.72 333.402 99.1035 343.136 93.3223 353.428ZM78.9675 319.015C87.7373 321.486 97.0405 322.953 106.775 322.953C109.685 322.953 112.635 322.812 115.623 322.537L80.5991 337.128C81.4854 335.755 82.1444 334.202 82.4738 332.5C83.4387 327.518 82.0032 322.624 78.9753 319.008L78.9675 319.015ZM82.466 193.595C82.1444 191.932 81.509 190.41 80.6461 189.053L115.639 203.463C102.696 202.27 90.4357 203.761 79.0694 206.953C82.0267 203.353 83.4151 198.505 82.466 193.587V193.595ZM93.2674 172.478C99.0486 182.801 106.673 192.559 116.698 200.89L81.611 186.441C83.2033 186.096 84.7643 185.452 86.1998 184.488C89.7846 182.072 92.2163 178.4 93.0399 174.157C93.1498 173.6 93.2204 173.035 93.2753 172.478H93.2674ZM203.745 128.456C205.204 129.515 211.33 135.077 205.62 150.13C201.392 147.698 196.842 145.612 191.963 143.894C192.74 140.372 195.752 129.696 203.745 128.456ZM228.98 128.598C226.752 133.249 225.003 137.94 223.732 142.647C208.954 136.034 209.369 127.735 209.644 125.962C216.225 121.146 226.03 126.715 228.98 128.598ZM316.239 125.962C316.521 127.743 316.921 136.003 302.252 142.6C300.982 137.893 299.224 133.202 296.989 128.543C300.032 126.605 309.704 121.177 316.239 125.962ZM341.512 86.1998C344.352 90.4121 348.839 92.8517 353.545 93.2596C343.215 99.0407 333.449 106.673 325.11 116.706L339.567 81.6031C339.912 83.2033 340.548 84.7643 341.512 86.1998ZM333.982 143.91C329.111 145.627 324.569 147.722 320.349 150.146C314.56 135.006 320.725 129.429 322.177 128.37C330.233 129.617 333.237 140.489 333.982 143.91ZM350.424 137.226C350.424 138.026 350.439 138.858 350.486 139.713C345.474 140.56 340.705 141.729 336.186 143.188C332.735 127.57 339.583 122.966 341.16 122.134C347.811 124.166 349.82 132.622 350.424 137.218V137.226ZM432.678 172.572C433.133 177.208 435.572 181.624 439.73 184.425C441.134 185.366 442.648 186.009 444.209 186.354L409.294 200.898C419.288 192.591 426.904 182.856 432.678 172.564V172.572ZM429.242 263C421.978 271.668 391.802 304.135 353.71 296.699C353.883 296.236 354.048 295.765 354.22 295.295C354.275 295.13 354.338 294.965 354.393 294.8C354.612 294.181 354.816 293.553 355.02 292.933C355.044 292.871 355.059 292.808 355.083 292.745C355.169 292.894 355.263 293.035 355.365 293.161C356.009 293.985 356.762 294.298 356.762 294.298C356.762 294.298 356.966 294.283 357.271 294.196C357.577 294.094 358.001 293.914 358.425 293.608C359.28 292.988 360.135 291.859 360.299 289.819L356.15 289.231C357.279 285.223 358.15 281.112 358.754 276.908C358.754 276.884 358.754 276.861 358.762 276.837C358.864 276.108 358.966 275.378 359.052 274.641C359.06 274.562 359.068 274.484 359.083 274.398C359.162 273.723 359.24 273.041 359.303 272.366C359.319 272.209 359.327 272.052 359.342 271.895C359.397 271.291 359.452 270.679 359.491 270.068C359.507 269.809 359.523 269.55 359.538 269.291C359.57 268.781 359.609 268.263 359.633 267.746C359.656 267.33 359.664 266.922 359.68 266.506C359.695 266.138 359.711 265.761 359.719 265.392C359.758 263.792 359.758 262.192 359.719 260.592C359.711 260.223 359.695 259.847 359.68 259.478C359.664 259.062 359.656 258.646 359.633 258.231C359.609 257.713 359.57 257.203 359.538 256.693C359.523 256.434 359.507 256.168 359.491 255.909C359.444 255.297 359.397 254.693 359.342 254.089C359.327 253.932 359.319 253.775 359.303 253.611C359.24 252.928 359.162 252.253 359.083 251.579C359.076 251.5 359.068 251.414 359.052 251.336C358.966 250.606 358.864 249.877 358.762 249.147C358.762 249.124 358.762 249.1 358.754 249.069C358.15 244.872 357.279 240.754 356.15 236.745L360.299 236.157C360.135 234.118 359.28 232.98 358.425 232.368C358.001 232.063 357.585 231.874 357.271 231.78C356.966 231.694 356.762 231.678 356.762 231.678C356.762 231.678 356.009 232 355.365 232.816C355.263 232.941 355.177 233.082 355.083 233.231C355.059 233.169 355.044 233.106 355.02 233.043C354.816 232.423 354.612 231.804 354.393 231.184C354.338 231.011 354.275 230.847 354.212 230.682C354.048 230.211 353.883 229.748 353.71 229.286C391.809 221.842 421.978 254.324 429.242 262.984V263ZM367.304 304.7C371.956 304.543 376.623 303.9 381.283 302.778C383.416 307.618 385.762 310.991 388.06 313.328L367.296 304.7H367.304ZM380.553 380.553C369.297 381.557 325.048 383.212 303.327 350.965C303.774 350.761 304.213 350.549 304.653 350.345C304.817 350.267 304.982 350.188 305.147 350.11C305.727 349.827 306.316 349.537 306.888 349.239C306.951 349.208 307.014 349.176 307.077 349.145C307.037 349.31 306.998 349.482 306.982 349.639C306.857 350.675 307.163 351.428 307.163 351.428C307.163 351.428 307.312 351.561 307.594 351.718C307.884 351.867 308.308 352.032 308.826 352.11C309.869 352.275 311.273 352.079 312.834 350.753L310.316 347.404C313.948 345.364 317.47 343.073 320.867 340.532C320.89 340.516 320.914 340.493 320.937 340.477C321.518 340.038 322.098 339.599 322.679 339.144C322.749 339.089 322.82 339.034 322.89 338.979C323.416 338.563 323.942 338.139 324.467 337.708C324.593 337.606 324.718 337.496 324.851 337.386C325.314 337.002 325.777 336.618 326.232 336.218C326.436 336.045 326.64 335.865 326.836 335.684C327.213 335.347 327.597 335.018 327.973 334.68C328.287 334.398 328.601 334.1 328.907 333.817C329.174 333.574 329.44 333.331 329.699 333.08C330.86 331.974 331.99 330.844 333.096 329.683C333.347 329.425 333.59 329.158 333.833 328.891C334.123 328.577 334.414 328.272 334.696 327.958C335.033 327.581 335.37 327.205 335.7 326.828C335.88 326.624 336.061 326.42 336.241 326.216C336.633 325.761 337.026 325.299 337.41 324.836C337.512 324.71 337.622 324.585 337.724 324.459C338.155 323.934 338.579 323.408 338.995 322.883C339.049 322.812 339.104 322.749 339.159 322.679C339.614 322.098 340.061 321.518 340.493 320.937C340.508 320.914 340.524 320.89 340.548 320.867C343.089 317.47 345.38 313.948 347.419 310.316L350.769 312.834C352.094 311.273 352.29 309.869 352.126 308.826C352.047 308.308 351.875 307.884 351.733 307.594C351.577 307.32 351.443 307.163 351.443 307.163C351.443 307.163 350.682 306.857 349.655 306.982C349.498 306.998 349.333 307.037 349.161 307.077C349.192 307.014 349.223 306.951 349.255 306.896C349.553 306.316 349.843 305.727 350.125 305.139C350.204 304.974 350.282 304.817 350.361 304.653C350.573 304.213 350.784 303.766 350.988 303.319C383.181 325 381.565 369.289 380.577 380.553H380.553ZM307.265 366.237C310.661 369.414 314.419 372.262 318.513 374.772C316.599 379.698 315.87 383.746 315.846 387.025L307.265 366.237ZM263 429.242C254.332 421.994 221.849 391.872 229.301 353.702C229.772 353.875 230.243 354.048 230.713 354.212C230.87 354.267 231.027 354.322 231.192 354.377C231.819 354.597 232.447 354.808 233.082 355.012C233.137 355.028 233.2 355.052 233.255 355.067C233.106 355.154 232.965 355.248 232.839 355.35C232.015 355.993 231.702 356.746 231.702 356.746C231.702 356.746 231.717 356.95 231.804 357.256C231.906 357.562 232.086 357.985 232.392 358.409C233.012 359.264 234.141 360.119 236.181 360.284L236.769 356.134C240.777 357.264 244.896 358.134 249.1 358.738C249.116 358.738 249.124 358.738 249.139 358.738C249.877 358.84 250.622 358.942 251.359 359.029C251.43 359.036 251.493 359.044 251.563 359.052C252.253 359.131 252.944 359.209 253.634 359.272C253.775 359.287 253.909 359.295 254.05 359.311C254.677 359.366 255.297 359.421 255.932 359.468C256.168 359.484 256.403 359.499 256.638 359.515C257.18 359.546 257.713 359.586 258.254 359.609C258.631 359.625 259.007 359.64 259.384 359.648C259.792 359.664 260.2 359.68 260.615 359.695C261.361 359.711 262.106 359.719 262.851 359.727C262.906 359.727 262.953 359.727 263.008 359.727C263.063 359.727 263.11 359.727 263.165 359.727C263.91 359.727 264.655 359.719 265.4 359.695C265.808 359.687 266.216 359.664 266.624 359.648C267.001 359.633 267.377 359.625 267.754 359.601C268.295 359.578 268.828 359.538 269.369 359.507C269.605 359.491 269.84 359.476 270.075 359.46C270.703 359.413 271.331 359.358 271.95 359.303C272.091 359.287 272.225 359.28 272.366 359.264C273.056 359.201 273.747 359.123 274.437 359.044C274.507 359.036 274.578 359.029 274.649 359.021C275.394 358.934 276.131 358.832 276.869 358.73C276.884 358.73 276.9 358.73 276.908 358.73C281.112 358.126 285.23 357.256 289.239 356.126L289.827 360.276C291.867 360.111 293.004 359.256 293.624 358.401C293.93 357.977 294.118 357.562 294.212 357.248C294.298 356.942 294.314 356.738 294.314 356.738C294.314 356.738 293.992 355.985 293.177 355.342C293.051 355.24 292.91 355.154 292.761 355.059C292.816 355.044 292.879 355.02 292.933 355.005C293.569 354.801 294.196 354.589 294.824 354.369C294.981 354.314 295.138 354.259 295.302 354.204C295.773 354.04 296.252 353.867 296.714 353.695C304.151 391.794 271.676 421.97 263.008 429.234L263 429.242ZM210.232 386.734C210.162 383.495 209.401 379.541 207.534 374.748C211.613 372.246 215.354 369.406 218.751 366.237L210.24 386.742L210.232 386.734ZM145.447 380.553C144.443 369.297 142.78 325.048 175.035 303.327C175.239 303.774 175.451 304.221 175.663 304.668C175.741 304.825 175.812 304.982 175.89 305.139C176.181 305.727 176.471 306.323 176.769 306.904C176.8 306.959 176.824 307.022 176.855 307.077C176.69 307.037 176.518 306.998 176.361 306.982C175.325 306.857 174.565 307.163 174.565 307.163C174.565 307.163 174.431 307.312 174.274 307.594C174.125 307.884 173.961 308.308 173.882 308.826C173.717 309.869 173.914 311.273 175.239 312.834L178.589 310.316C180.628 313.948 182.919 317.47 185.468 320.874C185.476 320.89 185.492 320.906 185.499 320.922C185.947 321.51 186.394 322.098 186.849 322.686C186.896 322.749 186.943 322.812 186.998 322.867C187.421 323.4 187.853 323.942 188.284 324.467C188.378 324.585 188.48 324.702 188.574 324.82C188.967 325.291 189.359 325.761 189.767 326.232C189.931 326.42 190.104 326.609 190.269 326.805C190.614 327.197 190.959 327.589 191.312 327.973C191.579 328.264 191.853 328.554 192.12 328.844C192.387 329.127 192.645 329.417 192.912 329.699C193.461 330.28 194.018 330.844 194.583 331.409C195.148 331.974 195.72 332.531 196.301 333.08C196.583 333.347 196.866 333.606 197.148 333.872C197.438 334.147 197.729 334.421 198.027 334.688C198.411 335.041 198.803 335.378 199.195 335.723C199.391 335.896 199.58 336.061 199.776 336.233C200.239 336.633 200.709 337.026 201.172 337.418C201.29 337.52 201.415 337.622 201.533 337.724C202.059 338.155 202.592 338.587 203.125 339.002C203.188 339.057 203.259 339.104 203.321 339.159C203.902 339.614 204.482 340.061 205.071 340.501C205.094 340.516 205.11 340.532 205.133 340.548C208.53 343.089 212.052 345.38 215.684 347.419L213.166 350.769C214.727 352.094 216.131 352.29 217.174 352.126C217.692 352.047 218.116 351.875 218.406 351.733C218.68 351.577 218.837 351.443 218.837 351.443C218.837 351.443 219.143 350.682 219.018 349.655C219.002 349.498 218.963 349.333 218.923 349.161C218.986 349.192 219.049 349.223 219.112 349.255C219.692 349.553 220.273 349.843 220.861 350.125C221.026 350.204 221.19 350.282 221.355 350.361C221.794 350.573 222.234 350.776 222.681 350.98C200.992 383.181 156.703 381.557 145.447 380.569V380.553ZM138.207 313.171C140.442 310.826 142.702 307.5 144.765 302.794C149.416 303.907 154.068 304.543 158.704 304.7L138.207 313.171ZM96.7581 263C104.006 254.332 134.128 221.842 172.298 229.301C172.125 229.764 171.96 230.227 171.796 230.69C171.733 230.862 171.67 231.035 171.615 231.208C171.403 231.819 171.192 232.439 170.995 233.051C170.972 233.121 170.948 233.184 170.933 233.255C170.846 233.106 170.752 232.965 170.65 232.839C170.007 232.015 169.254 231.702 169.254 231.702C169.254 231.702 169.05 231.717 168.744 231.804C168.43 231.906 168.015 232.086 167.591 232.392C166.736 233.012 165.881 234.141 165.716 236.181L169.866 236.769C168.736 240.777 167.874 244.888 167.262 249.084C167.262 249.116 167.262 249.139 167.246 249.171C167.144 249.892 167.042 250.622 166.956 251.351C166.948 251.438 166.94 251.524 166.924 251.61C166.846 252.285 166.775 252.952 166.705 253.626C166.689 253.791 166.673 253.956 166.658 254.113C166.603 254.717 166.548 255.313 166.509 255.917C166.493 256.183 166.477 256.45 166.454 256.717C166.422 257.227 166.391 257.729 166.36 258.239C166.336 258.662 166.328 259.086 166.313 259.509C166.297 259.87 166.281 260.231 166.273 260.592C166.234 262.192 166.234 263.792 166.273 265.392C166.281 265.753 166.297 266.114 166.313 266.483C166.328 266.906 166.344 267.33 166.36 267.754C166.383 268.263 166.414 268.773 166.454 269.275C166.469 269.542 166.485 269.809 166.501 270.075C166.548 270.679 166.595 271.283 166.65 271.887C166.665 272.052 166.673 272.209 166.697 272.374C166.76 273.048 166.838 273.723 166.917 274.398C166.924 274.484 166.932 274.562 166.948 274.649C167.034 275.378 167.128 276.108 167.238 276.829C167.238 276.853 167.238 276.884 167.246 276.908C167.85 281.104 168.721 285.223 169.85 289.223L165.701 289.811C165.865 291.851 166.72 292.988 167.575 293.6C167.999 293.906 168.415 294.094 168.729 294.189C169.034 294.275 169.238 294.29 169.238 294.29C169.238 294.29 169.991 293.969 170.635 293.153C170.737 293.028 170.823 292.886 170.917 292.737C170.941 292.8 170.964 292.871 170.98 292.933C171.184 293.553 171.388 294.173 171.607 294.793C171.662 294.957 171.725 295.13 171.788 295.295C171.952 295.765 172.117 296.228 172.29 296.691C134.183 304.127 104.022 271.652 96.7502 262.984L96.7581 263ZM158.688 221.292C154.044 221.449 149.377 222.093 144.71 223.206C142.576 218.374 140.238 215.001 137.932 212.664L158.68 221.292H158.688ZM145.447 145.447C156.711 144.451 200.952 142.788 222.673 175.035C222.234 175.239 221.794 175.443 221.355 175.655C221.19 175.733 221.018 175.812 220.853 175.898C220.273 176.181 219.692 176.471 219.12 176.761C219.057 176.792 218.994 176.824 218.923 176.855C218.963 176.69 219.002 176.526 219.018 176.361C219.143 175.325 218.837 174.572 218.837 174.572C218.837 174.572 218.688 174.439 218.406 174.282C218.116 174.133 217.692 173.968 217.174 173.89C216.131 173.725 214.727 173.921 213.166 175.247L215.684 178.597C212.052 180.636 208.53 182.927 205.133 185.468C205.11 185.484 205.094 185.499 205.071 185.515C204.482 185.954 203.902 186.401 203.321 186.856C203.259 186.904 203.188 186.958 203.125 187.013C202.592 187.437 202.059 187.861 201.533 188.292C201.407 188.394 201.29 188.496 201.172 188.598C200.701 188.99 200.239 189.382 199.776 189.774C199.58 189.947 199.384 190.12 199.188 190.292C198.803 190.63 198.411 190.975 198.027 191.32C197.729 191.594 197.438 191.869 197.14 192.143C196.858 192.402 196.575 192.661 196.301 192.928C195.14 194.026 194.018 195.156 192.912 196.317C192.645 196.599 192.379 196.889 192.12 197.172C191.853 197.462 191.579 197.752 191.312 198.042C190.959 198.434 190.614 198.827 190.269 199.219C190.104 199.407 189.931 199.595 189.767 199.784C189.359 200.254 188.967 200.725 188.566 201.203C188.472 201.321 188.37 201.431 188.276 201.549C187.837 202.082 187.406 202.615 186.982 203.157C186.935 203.212 186.888 203.274 186.841 203.329C186.378 203.918 185.931 204.506 185.484 205.102C185.476 205.118 185.468 205.126 185.46 205.141C182.919 208.538 180.62 212.068 178.581 215.7L175.231 213.182C173.906 214.743 173.71 216.147 173.874 217.19C173.953 217.708 174.125 218.131 174.267 218.421C174.423 218.696 174.557 218.853 174.557 218.853C174.557 218.853 175.318 219.159 176.353 219.033C176.51 219.018 176.675 218.978 176.847 218.939C176.816 218.994 176.792 219.049 176.761 219.104C176.463 219.692 176.165 220.288 175.875 220.885C175.804 221.034 175.726 221.19 175.655 221.347C175.443 221.794 175.231 222.242 175.02 222.697C142.827 201.007 144.443 156.727 145.431 145.463L145.447 145.447ZM218.735 159.763C215.339 156.586 211.581 153.738 207.487 151.228C209.401 146.302 210.13 142.254 210.154 138.976L218.735 159.763ZM263 96.7502C271.668 103.998 304.151 134.12 296.699 172.29C296.228 172.117 295.757 171.945 295.279 171.78C295.122 171.725 294.965 171.67 294.808 171.615C294.181 171.396 293.553 171.184 292.918 170.98C292.863 170.964 292.8 170.941 292.745 170.925C292.894 170.839 293.035 170.744 293.161 170.643C293.985 169.999 294.298 169.246 294.298 169.246C294.298 169.246 294.283 169.042 294.196 168.736C294.094 168.423 293.914 168.007 293.608 167.583C292.988 166.728 291.859 165.873 289.811 165.709L289.223 169.858C285.215 168.729 281.097 167.858 276.892 167.254C276.884 167.254 276.869 167.254 276.861 167.254C276.123 167.144 275.378 167.05 274.633 166.956C274.57 166.956 274.5 166.94 274.429 166.932C273.739 166.854 273.048 166.775 272.35 166.705C272.217 166.689 272.076 166.681 271.942 166.666C271.315 166.611 270.687 166.556 270.06 166.509C269.832 166.493 269.597 166.477 269.369 166.462C268.828 166.422 268.287 166.391 267.738 166.367C267.369 166.352 267.001 166.336 266.64 166.328C266.224 166.313 265.808 166.297 265.385 166.281C264.663 166.265 263.949 166.258 263.227 166.258C263.149 166.258 263.071 166.258 262.992 166.258C262.914 166.258 262.835 166.258 262.757 166.258C262.043 166.258 261.321 166.265 260.608 166.281C260.184 166.289 259.768 166.313 259.352 166.328C258.984 166.344 258.623 166.352 258.254 166.367C257.705 166.391 257.164 166.43 256.623 166.462C256.395 166.477 256.16 166.485 255.932 166.509C255.305 166.556 254.669 166.611 254.042 166.666C253.909 166.681 253.767 166.689 253.634 166.705C252.936 166.767 252.246 166.846 251.555 166.932C251.493 166.932 251.422 166.948 251.359 166.956C250.614 167.042 249.869 167.144 249.124 167.254C249.116 167.254 249.108 167.254 249.092 167.254C244.888 167.858 240.77 168.729 236.753 169.858L236.165 165.709C234.126 165.873 232.988 166.728 232.376 167.583C232.07 168.007 231.882 168.423 231.788 168.736C231.702 169.042 231.686 169.246 231.686 169.246C231.686 169.246 232.008 169.999 232.823 170.643C232.949 170.744 233.09 170.831 233.239 170.925C233.184 170.941 233.121 170.964 233.067 170.98C232.431 171.184 231.804 171.396 231.176 171.615C231.019 171.67 230.862 171.725 230.705 171.78C230.227 171.945 229.756 172.117 229.286 172.29C221.849 134.191 254.332 104.014 262.992 96.7502H263ZM315.768 139.266C315.846 142.505 316.599 146.459 318.466 151.252C314.387 153.754 310.646 156.594 307.257 159.763L315.768 139.258V139.266ZM380.553 145.447C381.541 156.711 383.157 200.992 350.965 222.673C350.761 222.226 350.549 221.779 350.337 221.332C350.259 221.175 350.188 221.018 350.11 220.853C349.827 220.265 349.529 219.677 349.231 219.088C349.2 219.033 349.176 218.971 349.145 218.916C349.31 218.955 349.482 218.994 349.639 219.01C350.675 219.135 351.428 218.829 351.428 218.829C351.428 218.829 351.561 218.68 351.718 218.398C351.867 218.108 352.032 217.684 352.11 217.166C352.275 216.123 352.079 214.719 350.753 213.158L347.404 215.676C345.364 212.044 343.073 208.522 340.532 205.126C340.516 205.11 340.501 205.086 340.493 205.071C340.053 204.482 339.606 203.894 339.151 203.314C339.096 203.251 339.049 203.18 338.995 203.117C338.571 202.584 338.147 202.059 337.716 201.533C337.614 201.407 337.512 201.29 337.402 201.164C337.018 200.701 336.626 200.239 336.226 199.776C336.053 199.572 335.873 199.368 335.692 199.172C335.355 198.795 335.025 198.411 334.688 198.034C334.406 197.721 334.108 197.415 333.825 197.101C333.582 196.834 333.339 196.568 333.088 196.309C331.982 195.148 330.852 194.018 329.691 192.912C329.432 192.661 329.166 192.426 328.907 192.183C328.593 191.892 328.279 191.594 327.966 191.312C327.597 190.975 327.22 190.645 326.844 190.316C326.64 190.135 326.436 189.955 326.224 189.774C325.769 189.382 325.306 188.998 324.851 188.614C324.726 188.504 324.593 188.394 324.467 188.292C323.949 187.861 323.424 187.437 322.89 187.021C322.82 186.966 322.749 186.911 322.679 186.856C322.106 186.401 321.526 185.962 320.937 185.523C320.914 185.507 320.89 185.484 320.867 185.468C317.47 182.927 313.948 180.636 310.316 178.597L312.834 175.247C311.273 173.921 309.869 173.725 308.826 173.89C308.308 173.968 307.884 174.141 307.594 174.282C307.32 174.439 307.163 174.572 307.163 174.572C307.163 174.572 306.857 175.333 306.982 176.361C306.998 176.518 307.037 176.683 307.077 176.855C307.014 176.824 306.943 176.792 306.88 176.761C306.3 176.471 305.727 176.181 305.147 175.898C304.982 175.82 304.81 175.741 304.645 175.655C304.206 175.443 303.766 175.239 303.319 175.035C325.008 142.843 369.289 144.459 380.545 145.447H380.553ZM352.989 233.71C353.02 233.804 353.051 233.898 353.083 233.992C353.294 234.659 353.506 235.334 353.702 236.008C353.71 236.04 353.718 236.071 353.734 236.102C355.028 240.471 355.993 244.911 356.644 249.398C356.644 249.422 356.644 249.445 356.652 249.469C356.754 250.183 356.848 250.896 356.934 251.61C356.942 251.689 356.95 251.775 356.966 251.853C357.044 252.512 357.115 253.171 357.177 253.83C357.193 253.987 357.209 254.144 357.217 254.301C357.271 254.889 357.319 255.485 357.366 256.074C357.381 256.325 357.397 256.576 357.413 256.834C357.444 257.337 357.475 257.846 357.507 258.348C357.522 258.741 357.538 259.133 357.554 259.533C357.57 259.909 357.585 260.286 357.593 260.655C357.609 261.431 357.624 262.216 357.624 263C357.624 263.784 357.617 264.561 357.593 265.345C357.585 265.722 357.57 266.098 357.554 266.475C357.538 266.867 357.53 267.259 357.507 267.652C357.483 268.161 357.452 268.664 357.413 269.173C357.397 269.424 357.381 269.675 357.366 269.926C357.319 270.523 357.271 271.111 357.217 271.707C357.201 271.864 357.193 272.021 357.177 272.178C357.115 272.837 357.044 273.503 356.966 274.162C356.958 274.241 356.95 274.319 356.942 274.405C356.856 275.119 356.762 275.841 356.66 276.555C356.66 276.578 356.66 276.602 356.652 276.618C356.001 281.097 355.036 285.544 353.742 289.913C353.734 289.945 353.726 289.968 353.718 290C353.514 290.674 353.31 291.349 353.091 292.023C353.059 292.118 353.028 292.212 353.004 292.298C352.808 292.902 352.604 293.506 352.392 294.11C352.337 294.275 352.275 294.447 352.22 294.612C352.032 295.138 351.843 295.655 351.655 296.173C351.561 296.424 351.467 296.675 351.365 296.926C351.2 297.358 351.035 297.789 350.863 298.213C350.729 298.55 350.588 298.895 350.447 299.232C350.306 299.57 350.172 299.899 350.023 300.236C349.835 300.668 349.655 301.091 349.459 301.523C349.357 301.758 349.247 302.001 349.137 302.237C348.902 302.746 348.666 303.264 348.423 303.766C348.353 303.915 348.282 304.064 348.204 304.221C347.921 304.802 347.631 305.382 347.341 305.955C347.302 306.033 347.262 306.112 347.223 306.19C346.894 306.826 346.564 307.461 346.227 308.088C346.219 308.104 346.203 308.128 346.195 308.151C344.015 312.16 341.56 315.995 338.838 319.627C338.83 319.635 338.822 319.651 338.814 319.659C338.375 320.239 337.936 320.82 337.481 321.392C337.434 321.447 337.394 321.502 337.347 321.557C336.931 322.09 336.508 322.616 336.076 323.134C335.982 323.243 335.896 323.353 335.802 323.463C335.41 323.934 335.018 324.396 334.625 324.859C334.468 325.04 334.312 325.212 334.163 325.385C333.817 325.777 333.472 326.169 333.119 326.561C332.868 326.836 332.609 327.111 332.358 327.385C332.092 327.675 331.825 327.966 331.55 328.256C331.041 328.789 330.523 329.323 329.997 329.848C329.942 329.903 329.895 329.95 329.84 330.005C329.315 330.531 328.781 331.048 328.248 331.558C327.966 331.833 327.668 332.099 327.377 332.366C327.103 332.625 326.828 332.876 326.554 333.127C326.169 333.48 325.777 333.825 325.377 334.17C325.197 334.327 325.024 334.484 324.851 334.633C324.389 335.033 323.926 335.425 323.455 335.81C323.345 335.904 323.236 335.99 323.126 336.084C322.608 336.516 322.075 336.939 321.549 337.355C321.494 337.402 321.439 337.441 321.384 337.488C320.812 337.936 320.231 338.383 319.643 338.822C319.635 338.822 319.619 338.838 319.612 338.845C315.98 341.56 312.144 344.023 308.135 346.203C308.12 346.211 308.096 346.227 308.073 346.235C307.445 346.572 306.81 346.909 306.174 347.231C306.096 347.27 306.018 347.309 305.939 347.349C305.366 347.639 304.786 347.929 304.206 348.211C304.056 348.282 303.907 348.353 303.751 348.431C303.241 348.674 302.731 348.91 302.221 349.145C301.986 349.255 301.75 349.357 301.507 349.467C301.076 349.655 300.652 349.843 300.221 350.031C299.891 350.172 299.554 350.314 299.224 350.447C298.887 350.588 298.542 350.729 298.205 350.863C297.781 351.035 297.35 351.2 296.918 351.365C296.667 351.459 296.416 351.561 296.165 351.655C295.648 351.851 295.122 352.039 294.604 352.22C294.44 352.275 294.275 352.337 294.102 352.392C293.498 352.604 292.894 352.808 292.29 353.004C292.196 353.036 292.102 353.067 292.016 353.091C291.341 353.302 290.666 353.514 289.992 353.718C289.96 353.726 289.937 353.734 289.906 353.742C285.536 355.036 281.089 356.001 276.61 356.652C276.586 356.652 276.563 356.652 276.547 356.66C275.833 356.762 275.119 356.856 274.405 356.942C274.327 356.95 274.241 356.958 274.162 356.973C273.503 357.052 272.844 357.122 272.178 357.185C272.021 357.201 271.864 357.209 271.707 357.224C271.119 357.279 270.523 357.326 269.926 357.373C269.675 357.389 269.424 357.405 269.166 357.421C268.664 357.452 268.154 357.483 267.652 357.515C267.259 357.53 266.867 357.546 266.475 357.562C266.098 357.577 265.722 357.593 265.345 357.601C264.569 357.617 263.784 357.632 263 357.632C262.216 357.632 261.439 357.624 260.655 357.601C260.278 357.593 259.902 357.577 259.525 357.562C259.133 357.546 258.741 357.538 258.348 357.515C257.846 357.491 257.337 357.46 256.834 357.421C256.583 357.405 256.332 357.389 256.074 357.373C255.477 357.326 254.889 357.279 254.293 357.224C254.136 357.209 253.979 357.201 253.822 357.185C253.163 357.122 252.497 357.052 251.838 356.973C251.759 356.966 251.673 356.958 251.595 356.942C250.881 356.856 250.167 356.762 249.453 356.66C249.43 356.66 249.406 356.66 249.382 356.652C244.903 356.001 240.456 355.036 236.087 353.742C236.055 353.734 236.024 353.726 236 353.718C235.326 353.514 234.651 353.31 233.984 353.091C233.89 353.059 233.796 353.028 233.702 352.996C233.098 352.8 232.494 352.596 231.898 352.392C231.725 352.337 231.56 352.275 231.396 352.212C230.878 352.024 230.352 351.835 229.835 351.647C229.584 351.553 229.333 351.459 229.074 351.357C228.642 351.192 228.219 351.027 227.787 350.855C227.442 350.714 227.105 350.58 226.768 350.439C226.438 350.298 226.101 350.165 225.771 350.023C225.34 349.835 224.909 349.647 224.485 349.459C224.25 349.357 224.014 349.247 223.771 349.137C223.261 348.902 222.744 348.666 222.242 348.423C222.093 348.353 221.936 348.282 221.787 348.204C221.206 347.921 220.626 347.631 220.053 347.341C219.975 347.302 219.896 347.262 219.818 347.223C219.182 346.894 218.547 346.564 217.919 346.219C217.904 346.211 217.88 346.195 217.865 346.188C213.856 344.007 210.02 341.544 206.388 338.83C206.381 338.83 206.373 338.814 206.357 338.806C205.769 338.367 205.188 337.928 204.616 337.473C204.561 337.426 204.506 337.386 204.451 337.339C203.918 336.924 203.392 336.5 202.874 336.069C202.764 335.974 202.655 335.888 202.545 335.794C202.074 335.402 201.611 335.01 201.149 334.617C200.968 334.461 200.796 334.304 200.623 334.155C200.231 333.81 199.839 333.464 199.446 333.111C199.172 332.86 198.897 332.602 198.623 332.35C198.333 332.084 198.042 331.817 197.752 331.543C197.219 331.033 196.685 330.515 196.16 329.989C196.105 329.934 196.058 329.887 196.003 329.833C195.477 329.307 194.96 328.774 194.442 328.232C194.175 327.95 193.908 327.66 193.642 327.369C193.383 327.095 193.124 326.82 192.873 326.538C192.528 326.154 192.183 325.761 191.838 325.369C191.681 325.189 191.524 325.016 191.367 324.836C190.975 324.381 190.582 323.918 190.19 323.447C190.096 323.337 190.002 323.22 189.908 323.11C189.476 322.592 189.053 322.067 188.637 321.533C188.59 321.478 188.551 321.424 188.504 321.369C188.057 320.796 187.609 320.216 187.178 319.635C187.17 319.619 187.155 319.612 187.147 319.596C184.433 315.964 181.97 312.136 179.797 308.128C179.781 308.104 179.773 308.081 179.757 308.065C179.42 307.437 179.091 306.81 178.761 306.174C178.722 306.096 178.683 306.018 178.636 305.931C178.346 305.359 178.055 304.778 177.773 304.206C177.702 304.056 177.624 303.9 177.553 303.743C177.31 303.241 177.075 302.731 176.839 302.221C176.73 301.978 176.62 301.742 176.518 301.499C176.33 301.076 176.141 300.652 175.961 300.221C175.82 299.883 175.678 299.546 175.537 299.209C175.396 298.871 175.263 298.534 175.122 298.197C174.949 297.765 174.776 297.334 174.612 296.903C174.518 296.652 174.423 296.408 174.329 296.157C174.133 295.632 173.945 295.114 173.757 294.589C173.702 294.424 173.639 294.259 173.584 294.094C173.372 293.49 173.168 292.886 172.972 292.275C172.941 292.188 172.917 292.094 172.886 292.008C172.666 291.333 172.462 290.659 172.258 289.976C172.258 289.953 172.243 289.921 172.235 289.898C170.941 285.529 169.976 281.081 169.325 276.594C169.325 276.578 169.325 276.555 169.325 276.539C169.223 275.817 169.129 275.104 169.042 274.382C169.034 274.303 169.027 274.233 169.019 274.154C168.94 273.488 168.87 272.821 168.807 272.154C168.791 272.005 168.783 271.848 168.768 271.699C168.713 271.103 168.658 270.507 168.619 269.903C168.603 269.66 168.587 269.409 168.572 269.166C168.54 268.656 168.509 268.138 168.478 267.628C168.462 267.244 168.446 266.859 168.43 266.483C168.415 266.098 168.399 265.714 168.391 265.33C168.376 264.553 168.36 263.777 168.36 262.992C168.36 262.208 168.368 261.423 168.391 260.647C168.399 260.262 168.415 259.878 168.43 259.494C168.446 259.109 168.454 258.725 168.478 258.341C168.501 257.831 168.532 257.321 168.572 256.803C168.587 256.56 168.603 256.309 168.619 256.066C168.666 255.47 168.713 254.873 168.768 254.277C168.783 254.128 168.791 253.971 168.807 253.822C168.87 253.156 168.94 252.497 169.019 251.83C169.027 251.751 169.034 251.673 169.042 251.595C169.129 250.873 169.223 250.159 169.325 249.445C169.325 249.422 169.325 249.406 169.333 249.382C169.984 244.903 170.948 240.456 172.243 236.087C172.251 236.055 172.258 236.024 172.266 236C172.462 235.326 172.674 234.651 172.894 233.977C172.925 233.882 172.957 233.796 172.98 233.702C173.176 233.098 173.38 232.494 173.592 231.89C173.647 231.725 173.71 231.561 173.764 231.388C173.953 230.862 174.141 230.345 174.329 229.827C174.423 229.576 174.518 229.325 174.62 229.074C174.784 228.642 174.949 228.211 175.122 227.787C175.255 227.442 175.396 227.105 175.537 226.768C175.678 226.43 175.812 226.101 175.953 225.771C176.141 225.34 176.322 224.909 176.518 224.485C176.628 224.25 176.73 224.007 176.839 223.771C177.075 223.261 177.31 222.751 177.553 222.242C177.624 222.093 177.694 221.943 177.773 221.787C178.055 221.206 178.346 220.626 178.636 220.053C178.675 219.975 178.714 219.896 178.753 219.818C179.083 219.182 179.412 218.547 179.75 217.919C179.757 217.896 179.773 217.88 179.781 217.857C181.962 213.848 184.417 210.012 187.139 206.381C187.147 206.373 187.155 206.357 187.162 206.349C187.602 205.761 188.041 205.188 188.496 204.608C188.535 204.553 188.582 204.498 188.621 204.451C189.045 203.918 189.469 203.392 189.9 202.866C189.986 202.757 190.08 202.655 190.167 202.545C190.559 202.074 190.951 201.611 191.351 201.149C191.508 200.968 191.665 200.796 191.814 200.623C192.159 200.231 192.504 199.839 192.857 199.446C193.108 199.172 193.367 198.897 193.618 198.623C193.885 198.333 194.152 198.042 194.426 197.76C194.936 197.226 195.454 196.693 195.987 196.16C196.042 196.105 196.089 196.058 196.144 196.003C196.67 195.477 197.203 194.96 197.736 194.45C198.019 194.175 198.317 193.908 198.607 193.642C198.882 193.391 199.156 193.132 199.431 192.881C199.815 192.528 200.207 192.183 200.607 191.838C200.788 191.681 200.96 191.524 201.133 191.375C201.596 190.975 202.058 190.582 202.529 190.198C202.639 190.104 202.749 190.018 202.859 189.924C203.376 189.492 203.91 189.069 204.435 188.653C204.49 188.606 204.545 188.566 204.6 188.519C205.173 188.072 205.753 187.625 206.334 187.186C206.341 187.178 206.357 187.17 206.365 187.162C209.997 184.448 213.833 181.985 217.841 179.805C217.865 179.797 217.88 179.781 217.904 179.773C218.531 179.436 219.159 179.099 219.794 178.777C219.873 178.738 219.951 178.698 220.03 178.659C220.602 178.369 221.183 178.079 221.763 177.796C221.912 177.726 222.061 177.655 222.218 177.577C222.728 177.334 223.238 177.098 223.748 176.863C223.983 176.753 224.218 176.651 224.461 176.541C224.893 176.353 225.317 176.165 225.748 175.977C226.077 175.835 226.415 175.694 226.744 175.561C227.081 175.42 227.427 175.278 227.764 175.145C228.187 174.973 228.619 174.808 229.05 174.643C229.301 174.549 229.552 174.447 229.803 174.353C230.321 174.157 230.847 173.968 231.364 173.78C231.529 173.725 231.694 173.663 231.859 173.608C232.463 173.396 233.067 173.192 233.671 172.996C233.765 172.964 233.851 172.941 233.945 172.909C234.62 172.69 235.294 172.486 235.977 172.282C236 172.282 236.032 172.266 236.055 172.258C240.424 170.964 244.872 169.999 249.351 169.348C249.375 169.348 249.398 169.348 249.422 169.34C250.136 169.238 250.849 169.144 251.571 169.058C251.649 169.05 251.728 169.042 251.798 169.034C252.465 168.956 253.124 168.885 253.791 168.823C253.94 168.807 254.097 168.799 254.246 168.783C254.842 168.729 255.438 168.674 256.034 168.634C256.278 168.619 256.529 168.603 256.78 168.587C257.289 168.556 257.799 168.525 258.309 168.493C258.701 168.478 259.094 168.462 259.486 168.446C259.862 168.43 260.239 168.415 260.615 168.407C261.392 168.391 262.176 168.376 262.961 168.376C263.745 168.376 264.522 168.383 265.306 168.407C265.683 168.415 266.059 168.43 266.436 168.446C266.828 168.462 267.22 168.47 267.612 168.493C268.122 168.517 268.632 168.548 269.142 168.587C269.393 168.603 269.636 168.619 269.887 168.634C270.483 168.681 271.08 168.729 271.676 168.783C271.825 168.799 271.982 168.807 272.131 168.823C272.797 168.885 273.464 168.956 274.123 169.034C274.202 169.042 274.28 169.05 274.351 169.058C275.064 169.144 275.786 169.238 276.5 169.34C276.523 169.34 276.547 169.34 276.563 169.348C281.049 169.999 285.489 170.964 289.866 172.258L289.945 172.282C290.627 172.486 291.302 172.69 291.976 172.909C292.063 172.941 292.157 172.964 292.243 172.996C292.847 173.192 293.459 173.396 294.063 173.608C294.228 173.663 294.392 173.725 294.557 173.78C295.083 173.968 295.6 174.157 296.126 174.353C296.377 174.447 296.628 174.541 296.879 174.643C297.31 174.808 297.734 174.973 298.165 175.145C298.511 175.278 298.848 175.42 299.185 175.561C299.515 175.702 299.852 175.835 300.181 175.977C300.613 176.165 301.044 176.353 301.468 176.541C301.703 176.643 301.939 176.753 302.182 176.863C302.692 177.098 303.209 177.334 303.711 177.577C303.86 177.647 304.009 177.718 304.166 177.796C304.747 178.079 305.327 178.369 305.9 178.659C305.978 178.698 306.057 178.738 306.135 178.777C306.771 179.106 307.398 179.436 308.026 179.773C308.049 179.789 308.065 179.797 308.088 179.805C312.097 181.985 315.933 184.44 319.557 187.155C319.572 187.162 319.58 187.17 319.588 187.178C320.168 187.617 320.749 188.057 321.322 188.512C321.376 188.559 321.431 188.598 321.486 188.645C322.02 189.061 322.545 189.484 323.063 189.916C323.173 190.01 323.283 190.096 323.392 190.19C323.863 190.582 324.326 190.975 324.789 191.367C324.969 191.524 325.142 191.681 325.314 191.83C325.706 192.175 326.099 192.52 326.491 192.873C326.765 193.124 327.04 193.383 327.315 193.634C327.605 193.901 327.895 194.167 328.185 194.442C328.719 194.952 329.252 195.469 329.778 195.995C329.832 196.05 329.88 196.097 329.934 196.152C330.46 196.677 330.978 197.211 331.488 197.744C331.762 198.034 332.029 198.325 332.303 198.615C332.554 198.889 332.813 199.156 333.064 199.431C333.417 199.823 333.762 200.215 334.115 200.615C334.264 200.788 334.421 200.96 334.57 201.133C334.97 201.596 335.371 202.066 335.763 202.537C335.849 202.639 335.935 202.749 336.029 202.851C336.461 203.376 336.884 203.902 337.308 204.435C337.347 204.49 337.394 204.545 337.434 204.592C337.888 205.165 338.328 205.753 338.767 206.334C338.767 206.341 338.783 206.349 338.783 206.357C341.497 209.989 343.96 213.825 346.141 217.833C346.148 217.849 346.156 217.872 346.172 217.888C346.517 218.516 346.847 219.151 347.176 219.786C347.215 219.865 347.254 219.935 347.294 220.014C347.592 220.594 347.874 221.175 348.164 221.755C348.235 221.904 348.306 222.053 348.376 222.202C348.619 222.712 348.863 223.23 349.098 223.74C349.208 223.975 349.31 224.21 349.412 224.446C349.6 224.877 349.796 225.309 349.976 225.74C350.118 226.07 350.259 226.399 350.392 226.728C350.533 227.074 350.675 227.411 350.816 227.756C350.988 228.18 351.153 228.611 351.318 229.035C351.412 229.286 351.514 229.545 351.608 229.796C351.804 230.313 351.992 230.831 352.173 231.349C352.236 231.521 352.29 231.686 352.353 231.859C352.557 232.455 352.761 233.059 352.957 233.663L352.989 233.71ZM367.312 221.292L387.809 212.821C385.573 215.158 383.314 218.492 381.243 223.199C376.592 222.085 371.94 221.449 367.304 221.292H367.312ZM366.237 218.735C369.414 215.331 372.262 211.574 374.772 207.487C379.698 209.401 383.746 210.13 387.025 210.154L366.237 218.735ZM397.544 203.745C396.477 205.204 390.915 211.33 375.87 205.612C378.302 201.384 380.396 196.834 382.106 191.955C385.628 192.74 396.312 195.76 397.544 203.737V203.745ZM382.828 189.759C384.287 185.233 385.456 180.463 386.295 175.443C387.103 175.482 387.887 175.506 388.64 175.506C388.68 175.506 388.719 175.506 388.758 175.506C393.37 176.118 401.748 178.134 403.772 184.77C402.932 186.362 398.352 193.163 382.82 189.767L382.828 189.759ZM386.672 173.129C387.456 167.795 387.801 162.814 387.911 158.453C390.711 158.092 402.901 156.986 406.87 164.579C406.353 166.179 403.262 173.231 389.001 173.349C388.052 173.231 387.252 173.16 386.679 173.129H386.672ZM387.942 156.131C387.997 147.737 387.197 142.16 387.142 141.784L387.048 141.148C390.617 140.254 401.395 138.215 406.062 144.765C405.772 146.529 403.591 154.389 387.942 156.131ZM384.75 138.936L384.216 138.858C383.84 138.803 378.223 138.003 369.783 138.058C371.509 122.314 379.4 120.142 381.157 119.851C387.73 124.534 385.636 135.422 384.758 138.928L384.75 138.936ZM367.461 138.097C363.1 138.207 358.126 138.56 352.8 139.344C352.769 138.764 352.698 137.932 352.573 136.936C352.683 122.597 359.703 119.569 361.343 119.059C369.006 123.052 367.814 135.469 367.461 138.105V138.097ZM322.537 115.639C323.73 102.696 322.231 90.4278 319.039 79.0694C321.878 81.407 325.495 82.7641 329.315 82.7641C330.335 82.7641 331.37 82.6699 332.413 82.466C334.076 82.1444 335.598 81.509 336.955 80.6461L322.545 115.639H322.537ZM304.708 158.688C304.551 154.044 303.907 149.377 302.794 144.717C307.626 142.584 310.999 140.246 313.336 137.94L304.708 158.688ZM295.953 126.464C293.788 122.236 291.223 118.032 288.266 113.898C288.886 113.333 289.474 112.776 290.015 112.227C293.702 109.395 301.076 104.861 307.21 108.132C307.735 109.85 309.304 117.898 295.946 126.472L295.953 126.464ZM286.893 112.007C283.677 107.685 280.398 103.912 277.394 100.751C279.12 98.5152 286.956 89.11 295.13 91.6829C295.93 93.2125 298.746 100.312 288.705 110.517C287.945 111.105 287.325 111.631 286.893 112.015V112.007ZM275.778 99.0878C269.887 93.1184 265.369 89.7297 265.071 89.5101L264.561 89.1335C266.459 85.9802 272.664 76.928 280.555 78.238C281.552 79.6656 285.56 86.843 275.786 99.0878H275.778ZM260.929 89.5022C260.623 89.7297 256.081 93.1341 250.151 99.1427C240.236 86.796 244.284 79.6734 245.327 78.2301C253.289 76.9044 259.509 86.0821 261.361 89.1806L260.929 89.5022ZM248.543 100.814C245.539 103.975 242.268 107.748 239.06 112.062C238.628 111.678 237.985 111.129 237.185 110.509C227.136 100.296 229.96 93.189 230.76 91.675C239.012 89.0943 246.935 98.7034 248.551 100.814H248.543ZM235.883 112.243C236.447 112.807 237.044 113.38 237.687 113.96C234.737 118.102 232.18 122.291 230.023 126.519C216.555 117.922 218.147 109.834 218.672 108.132C224.814 104.861 232.212 109.419 235.89 112.243H235.883ZM223.199 144.757C222.085 149.4 221.449 154.06 221.292 158.688L212.821 138.191C215.158 140.427 218.492 142.686 223.199 144.757ZM186.347 81.7678L200.905 116.706C192.591 106.705 182.856 99.0878 172.564 93.3145C177.208 92.8595 181.624 90.4278 184.433 86.2704C185.382 84.8663 186.009 83.3367 186.354 81.7757L186.347 81.7678ZM188.865 80.5912C190.237 81.4776 191.79 82.1365 193.493 82.466C194.536 82.6699 195.571 82.7641 196.591 82.7641C200.466 82.7641 204.129 81.3521 206.992 78.9518C203.776 90.3415 202.27 102.649 203.463 115.631L188.865 80.5912ZM189.759 143.172C185.233 141.713 180.463 140.544 175.443 139.697C175.482 138.866 175.498 138.073 175.498 137.305C176.102 132.708 178.11 124.252 184.762 122.22C186.3 123.06 193.132 127.719 189.759 143.172ZM173.129 139.329C167.795 138.544 162.814 138.199 158.453 138.089C158.092 135.289 156.986 123.091 164.579 119.13C166.226 119.64 173.239 122.675 173.349 137.007C173.231 137.956 173.16 138.756 173.129 139.329ZM156.131 138.058C147.737 138.003 142.16 138.803 141.784 138.858L141.156 138.952C140.262 135.383 138.238 124.597 144.765 119.946C146.482 120.251 154.389 122.495 156.131 138.066V138.058ZM138.858 141.784C138.803 142.16 137.995 147.777 138.058 156.225C122.314 154.499 120.142 146.608 119.859 144.851C124.542 138.277 135.438 140.372 138.936 141.258L138.858 141.792V141.784ZM138.097 158.539C138.207 162.9 138.56 167.874 139.344 173.2C138.764 173.231 137.932 173.302 136.928 173.427C122.613 173.317 119.569 166.297 119.059 164.657C123.052 156.994 135.469 158.194 138.097 158.539ZM137.273 175.584C138.058 175.584 138.874 175.561 139.721 175.522C140.56 180.534 141.737 185.295 143.196 189.822C127.57 193.273 122.973 186.425 122.142 184.848C124.166 178.22 132.567 176.196 137.179 175.584C137.211 175.584 137.242 175.584 137.273 175.584ZM143.91 192.018C145.627 196.889 147.722 201.431 150.146 205.651C135.006 211.44 129.429 205.275 128.37 203.823C129.617 195.767 140.489 192.763 143.91 192.018ZM151.252 207.526C153.754 211.605 156.594 215.347 159.77 218.743L139.266 210.232C142.505 210.162 146.459 209.401 151.26 207.534L151.252 207.526ZM142.607 223.748C137.901 225.018 133.21 226.776 128.551 229.011C126.613 225.968 121.201 216.28 125.962 209.769C127.711 209.518 136.034 209.157 142.607 223.748ZM113.898 237.726C113.333 237.106 112.776 236.526 112.227 235.977C109.395 232.29 104.861 224.916 108.132 218.774C109.842 218.249 117.898 216.68 126.472 230.039C122.236 232.204 118.039 234.769 113.898 237.726ZM112.007 239.107C107.685 242.323 103.912 245.602 100.751 248.606C98.5152 246.88 89.11 239.044 91.6829 230.87C93.2125 230.062 100.312 227.254 110.517 237.302C111.105 238.055 111.623 238.675 112.007 239.107ZM99.0878 250.222C93.1184 256.113 89.7297 260.631 89.5101 260.929L89.1335 261.439C85.9802 259.549 76.9123 253.352 78.2458 245.437C79.697 244.394 86.796 240.377 99.0957 250.214L99.0878 250.222ZM89.5101 265.071C89.7375 265.377 93.1419 269.919 99.1506 275.841C86.8038 285.756 79.6813 281.708 78.238 280.665C76.9044 272.703 86.0821 266.483 89.1884 264.632L89.5101 265.063V265.071ZM100.814 277.457C103.975 280.461 107.748 283.732 112.062 286.94C111.678 287.372 111.129 288.015 110.509 288.815C100.296 298.871 93.189 296.048 91.675 295.247C89.0865 287.003 98.7034 279.073 100.814 277.457ZM112.258 290.102C112.823 289.545 113.388 288.949 113.96 288.313C118.102 291.263 122.299 293.812 126.527 295.969C117.922 309.445 109.834 307.861 108.132 307.335C104.861 301.186 109.434 293.773 112.258 290.102ZM128.605 297.012C133.257 299.24 137.948 300.997 142.647 302.268C136.034 317.046 127.735 316.639 125.962 316.356C121.138 309.775 126.723 299.946 128.605 297.012ZM159.77 307.265C156.594 310.669 153.746 314.427 151.236 318.513C146.302 316.599 142.262 315.87 138.976 315.846L159.77 307.265ZM128.456 322.255C129.523 320.796 135.077 314.662 150.13 320.38C147.698 324.608 145.604 329.158 143.894 334.037C140.372 333.26 129.688 330.248 128.456 322.255ZM143.172 336.241C141.713 340.767 140.544 345.537 139.697 350.557C138.858 350.518 138.042 350.502 137.265 350.502C132.661 349.898 124.244 347.882 122.22 341.238C123.06 339.653 127.649 332.853 143.172 336.241ZM139.336 352.871C138.552 358.205 138.207 363.186 138.097 367.547C135.297 367.908 123.091 369.006 119.138 361.421C119.655 359.774 122.707 352.769 137.014 352.651C137.956 352.769 138.756 352.84 139.336 352.871ZM138.058 369.869C138.003 378.263 138.803 383.84 138.858 384.216L138.952 384.844C135.383 385.738 124.597 387.762 119.938 381.235C120.244 379.518 122.487 371.611 138.058 369.869ZM141.25 387.064L141.784 387.142C142.145 387.197 147.369 387.942 155.299 387.942C155.597 387.942 155.919 387.942 156.225 387.942C154.499 403.686 146.608 405.858 144.851 406.149C138.277 401.466 140.372 390.57 141.25 387.072V387.064ZM158.539 387.903C162.9 387.793 167.874 387.432 173.2 386.656C173.231 387.236 173.302 388.076 173.427 389.08C173.317 403.419 166.289 406.439 164.657 406.949C156.994 402.956 158.194 390.531 158.539 387.903ZM203.463 410.361C202.27 423.296 203.769 435.564 206.953 446.923C206.561 446.601 206.153 446.295 205.722 446.005C202.137 443.589 197.83 442.71 193.579 443.534C191.939 443.856 190.418 444.475 189.045 445.338L203.455 410.361H203.463ZM221.292 367.32C221.449 371.964 222.093 376.631 223.206 381.29C218.374 383.424 215.001 385.762 212.664 388.068L221.285 367.32H221.292ZM230.047 399.536C232.212 403.764 234.777 407.968 237.734 412.11C237.114 412.675 236.526 413.232 235.977 413.789C232.29 416.621 224.924 421.147 218.782 417.876C218.257 416.158 216.688 408.11 230.047 399.544V399.536ZM239.099 413.993C242.315 418.315 245.594 422.088 248.606 425.249C246.88 427.485 239.044 436.89 230.87 434.317C230.07 432.787 227.254 425.681 237.31 415.475C238.071 414.887 238.675 414.377 239.107 413.993H239.099ZM250.222 426.912C256.113 432.882 260.631 436.27 260.929 436.49L261.439 436.866C259.541 440.02 253.352 449.08 245.445 447.754C244.401 446.295 240.385 439.204 250.222 426.904V426.912ZM265.071 436.498C265.377 436.27 269.919 432.866 275.841 426.857C285.756 439.204 281.708 446.327 280.665 447.77C272.719 449.111 266.491 439.926 264.632 436.819L265.063 436.498H265.071ZM277.457 425.179C280.461 422.017 283.732 418.252 286.94 413.93C287.372 414.314 287.999 414.856 288.807 415.475C298.871 425.696 296.04 432.803 295.247 434.317C287.011 436.906 279.073 427.289 277.457 425.179ZM290.117 413.75C289.553 413.185 288.956 412.612 288.321 412.04C291.27 407.898 293.828 403.709 295.985 399.481C309.453 408.086 307.861 416.166 307.335 417.868C301.193 421.139 293.796 416.574 290.11 413.75H290.117ZM302.801 381.243C303.915 376.6 304.551 371.94 304.708 367.312L313.179 387.809C310.842 385.573 307.508 383.314 302.801 381.243ZM337.128 445.409C335.755 444.522 334.202 443.871 332.5 443.534C327.511 442.561 322.616 444.005 319 447.04C322.216 435.651 323.722 423.351 322.53 410.369L337.128 445.409ZM336.241 382.828C340.767 384.287 345.537 385.456 350.557 386.303C350.518 387.142 350.502 387.95 350.502 388.727C349.898 393.331 347.89 401.756 341.238 403.788C339.653 402.948 332.845 398.359 336.241 382.836V382.828ZM352.871 386.664C358.205 387.448 363.186 387.793 367.547 387.903C367.908 390.696 369.022 402.901 361.421 406.862C359.774 406.345 352.761 403.317 352.651 388.986C352.769 388.036 352.84 387.236 352.871 386.656V386.664ZM369.869 387.942C370.144 387.942 370.434 387.942 370.701 387.942C378.631 387.942 383.855 387.189 384.216 387.142L384.844 387.048C385.738 390.617 387.762 401.403 381.235 406.055C379.518 405.749 371.611 403.513 369.869 387.934V387.942ZM387.142 384.216C387.197 383.84 388.005 378.223 387.942 369.783C403.686 371.509 405.858 379.4 406.141 381.157C401.458 387.723 390.57 385.636 387.064 384.75L387.142 384.216ZM387.903 367.453C387.793 363.092 387.44 358.119 386.656 352.792C387.236 352.761 388.068 352.69 389.064 352.565C403.395 352.675 406.431 359.703 406.941 361.335C402.948 368.999 390.531 367.798 387.903 367.453ZM388.774 350.424C387.974 350.424 387.142 350.439 386.279 350.486C385.432 345.474 384.263 340.705 382.804 336.186C398.43 332.735 403.027 339.575 403.858 341.16C401.826 347.811 393.378 349.82 388.774 350.424ZM382.09 333.982C380.373 329.111 378.278 324.569 375.854 320.349C390.994 314.56 396.571 320.725 397.63 322.177C396.383 330.233 385.511 333.237 382.09 333.982ZM374.741 318.474C372.238 314.395 369.399 310.653 366.23 307.265L386.734 315.776C383.495 315.846 379.541 316.607 374.748 318.474H374.741ZM383.393 302.252C388.099 300.982 392.79 299.224 397.449 296.989C399.387 300.025 404.815 309.712 400.038 316.239C398.297 316.497 389.966 316.85 383.393 302.252ZM412.102 288.266C412.659 288.878 413.216 289.458 413.757 290C416.589 293.679 421.139 301.068 417.868 307.218C416.15 307.743 408.102 309.312 399.528 295.938C403.764 293.773 407.961 291.216 412.102 288.258V288.266ZM413.993 286.893C418.315 283.677 422.088 280.398 425.249 277.394C427.485 279.12 436.882 286.972 434.325 295.13C432.827 295.891 425.649 298.683 415.483 288.69C414.903 287.937 414.385 287.325 414.001 286.893H413.993ZM426.912 275.778C432.882 269.887 436.262 265.369 436.49 265.071L436.866 264.561C440.02 266.451 449.088 272.648 447.754 280.555C446.303 281.599 439.204 285.615 426.904 275.778H426.912ZM436.498 260.929C436.27 260.623 432.866 256.081 426.857 250.159C439.204 240.252 446.327 244.292 447.77 245.335C449.103 253.297 439.926 259.517 436.819 261.368L436.498 260.937V260.929ZM425.179 248.543C422.017 245.539 418.252 242.268 413.93 239.06C414.314 238.628 414.863 237.985 415.483 237.185C425.696 227.136 432.803 229.96 434.317 230.753C436.906 238.997 427.289 246.927 425.179 248.543ZM413.757 235.883C413.193 236.447 412.62 237.051 412.04 237.687C407.898 234.737 403.709 232.18 399.481 230.023C408.078 216.562 416.166 218.147 417.868 218.672C421.139 224.814 416.581 232.212 413.757 235.89V235.883ZM397.395 228.98C392.743 226.752 388.052 225.003 383.346 223.732C389.958 208.946 398.257 209.354 400.03 209.644C404.846 216.217 399.277 226.03 397.395 228.98ZM445.409 188.865C444.522 190.237 443.863 191.79 443.534 193.493C442.71 197.736 443.581 202.051 446.005 205.635C446.327 206.106 446.672 206.561 447.033 206.992C435.643 203.784 423.343 202.27 410.369 203.463L445.417 188.865H445.409ZM489.658 167.426L458.265 180.503C461.301 175.6 459.952 169.129 455.136 165.873C453.167 164.548 450.806 164.061 448.476 164.524C446.146 164.979 444.138 166.313 442.812 168.274C441.714 169.905 441.322 171.858 441.691 173.78C442.067 175.71 443.165 177.373 444.797 178.471C446.154 179.389 447.786 179.718 449.386 179.404C450.994 179.091 452.374 178.173 453.292 176.824C454.877 174.478 454.257 171.278 451.904 169.693C449.919 168.352 447.205 168.878 445.864 170.87C445.307 171.694 445.103 172.69 445.299 173.663C445.487 174.635 446.044 175.482 446.876 176.039C447.589 176.526 448.452 176.698 449.292 176.533C450.139 176.369 450.868 175.882 451.347 175.176C451.723 174.62 451.574 173.866 451.017 173.498C450.468 173.121 449.715 173.27 449.339 173.827C449.221 174.008 449.041 174.125 448.829 174.165C448.617 174.204 448.405 174.165 448.233 174.039C447.942 173.843 447.746 173.553 447.684 173.208C447.621 172.87 447.684 172.517 447.88 172.235C448.476 171.348 449.676 171.121 450.555 171.709C451.794 172.549 452.123 174.235 451.284 175.475C450.735 176.29 449.896 176.847 448.931 177.036C447.966 177.224 446.978 177.028 446.162 176.471C443.911 174.957 443.314 171.89 444.836 169.638C445.801 168.211 447.26 167.238 448.954 166.909C450.641 166.579 452.367 166.924 453.794 167.897C457.622 170.478 458.634 175.694 456.053 179.522C452.735 184.44 446.029 185.75 441.102 182.432C438.051 180.377 435.988 177.255 435.29 173.647C434.85 171.396 434.976 169.129 435.627 166.995C436.192 165.842 436.741 164.681 437.267 163.512C437.306 163.449 437.337 163.379 437.384 163.316C437.478 163.167 437.541 163.01 437.572 162.853C438.537 160.688 439.424 158.508 440.247 156.327C462.391 155.393 482.622 164.03 489.666 167.434L489.658 167.426ZM446.499 79.5009C447.676 89.4551 454.947 167.834 399.434 204.788C399.512 204.671 399.575 204.576 399.591 204.545L399.763 204.239L399.724 203.886C399.512 202.035 398.901 200.419 398.038 198.999C398.814 199.674 399.607 199.964 400.281 200.05C401.309 200.184 402.062 199.893 402.062 199.893C402.062 199.893 402.595 199.289 402.815 198.278C403.034 197.266 402.933 195.854 401.693 194.222L396.994 197.525C395.355 195.516 393.182 193.995 390.97 192.842C402.76 192.74 405.772 185.633 405.921 185.264L406.055 184.935L405.968 184.589C404.572 179.279 400.077 176.424 395.677 174.886C407.325 172.651 408.988 165.073 409.067 164.681L409.137 164.336L408.988 164.014C406.611 158.994 401.583 157.017 396.924 156.343C407.647 152.46 408.235 144.961 408.259 144.568L408.282 144.215L408.086 143.917C403.584 137.046 394.249 137.579 389.001 138.536L396.139 131.398C401.811 125.742 409.192 125.123 412.863 125.217C413.828 126.692 416.911 127.907 418.817 128.017C421.131 128.151 420.605 126.597 420.707 124.723C420.817 122.848 421.515 121.365 419.201 121.232C417.421 121.13 414.503 121.867 413.208 123.075C410.863 122.973 407.004 123.13 402.909 124.628L411.828 115.71C414.307 116.384 418.982 114.078 421.06 111.999C423.461 109.599 421.241 108.666 419.303 106.72C417.358 104.775 416.417 102.563 414.024 104.963C411.945 107.042 409.639 111.717 410.314 114.196L401.395 123.115C402.893 119.012 403.05 115.153 402.948 112.815C404.148 111.521 404.894 108.611 404.792 106.822C404.658 104.508 403.176 105.214 401.301 105.324C399.426 105.434 397.873 104.908 398.006 107.214C398.116 109.121 399.332 112.203 400.807 113.168C400.909 116.839 400.289 124.221 394.602 129.908L387.362 137.148C388.342 131.939 388.978 122.424 382.02 117.867L381.722 117.671L381.369 117.694C380.977 117.718 373.478 118.306 369.595 129.029C368.912 124.37 366.943 119.341 361.923 116.973L361.601 116.824L361.256 116.894C360.864 116.973 353.287 118.636 351.051 130.284C349.514 125.884 346.658 121.389 341.348 119.993L341.003 119.906L340.673 120.04C340.297 120.189 333.19 123.201 333.088 134.991C331.95 132.818 330.452 130.676 328.491 129.045L331.786 124.346C330.154 123.107 328.75 122.997 327.73 123.224C326.718 123.444 326.114 123.977 326.114 123.977C326.114 123.977 325.816 124.73 325.957 125.758C326.044 126.417 326.318 127.178 326.946 127.931C325.518 127.06 323.894 126.44 322.043 126.229L321.69 126.189L321.384 126.362C358.385 71.1311 436.576 78.3635 446.515 79.5322L446.499 79.5009ZM363.304 88.3727C363.068 88.3727 362.833 88.4119 362.621 88.5531C362.331 88.7492 362.041 88.9139 361.743 89.0865C361.084 89.3845 360.433 89.6983 359.782 90.0121C353.953 92.2085 347.152 90.2239 343.521 84.8428C340.203 79.9166 341.505 73.2098 346.431 69.8917C350.259 67.311 355.475 68.3229 358.056 72.1509C360.048 75.1003 359.264 79.1243 356.314 81.1089C354.063 82.6307 350.996 82.0267 349.482 79.7833C348.345 78.0889 348.792 75.7906 350.478 74.6532C351.082 74.2453 351.804 74.1041 352.518 74.2374C353.232 74.3786 353.844 74.7787 354.251 75.3827C354.848 76.2612 354.612 77.4614 353.726 78.0575C353.13 78.4576 352.322 78.3007 351.922 77.7045C351.679 77.3359 351.773 76.8417 352.134 76.5985C352.69 76.222 352.832 75.469 352.463 74.9199C352.086 74.3629 351.333 74.2139 350.784 74.5904C349.317 75.5866 348.925 77.5869 349.914 79.0616C351.067 80.7638 353.381 81.2109 355.083 80.0656C357.075 78.7243 357.601 76.0102 356.26 74.0256C354.675 71.6802 351.475 71.0527 349.129 72.6372C346.337 74.5276 345.591 78.3321 347.474 81.1325C349.741 84.4898 354.306 85.3762 357.672 83.117C359.64 81.7914 360.974 79.7754 361.421 77.4535C361.876 75.1238 361.39 72.7627 360.072 70.7938C356.785 65.9226 350.188 64.5969 345.27 67.766L358.354 36.0048C362.08 42.6332 372.066 62.4084 372.497 84.7329C369.43 85.8154 366.363 87.0156 363.319 88.3648L363.304 88.3727ZM355.687 35.1498L342.736 66.5893C341.418 60.9807 335.873 57.3489 330.178 58.4627C325.369 59.3962 322.224 64.0714 323.157 68.872C323.534 70.8017 324.632 72.4646 326.263 73.5628C327.887 74.661 329.848 75.0611 331.77 74.6845C335.08 74.0413 337.253 70.8252 336.61 67.5071C336.069 64.7303 333.37 62.9026 330.586 63.4438C329.448 63.6634 328.46 64.3224 327.809 65.2794C327.158 66.2442 326.922 67.4051 327.142 68.5425C327.33 69.5152 327.887 70.3624 328.719 70.9193C329.542 71.4763 330.538 71.6724 331.511 71.4841C333.253 71.1468 334.398 69.4525 334.061 67.711C333.935 67.06 333.307 66.6207 332.641 66.7541C331.982 66.8796 331.558 67.5149 331.684 68.1739C331.77 68.6053 331.488 69.0289 331.048 69.1073C330.711 69.1701 330.358 69.1073 330.076 68.9112C329.785 68.7151 329.589 68.4249 329.527 68.0797C329.425 67.5777 329.527 67.06 329.817 66.6364C330.107 66.2128 330.538 65.9226 331.048 65.8206C332.515 65.5225 333.943 66.4952 334.233 67.9699C334.625 69.9702 333.315 71.9155 331.315 72.2999C328.656 72.8255 326.059 71.0762 325.542 68.4092C324.859 64.9185 327.15 61.522 330.648 60.8395C335.174 59.9531 339.583 62.9261 340.469 67.46C340.869 69.5231 340.657 71.6096 339.897 73.5157L339.795 73.7668C339.528 74.3786 339.214 74.9669 338.83 75.5317C337.222 77.9163 334.782 79.5322 331.958 80.0813C325.863 81.2658 319.91 78.2066 317.156 72.9745C316.748 71.7822 316.325 70.5899 315.878 69.4211C315.862 69.3426 315.838 69.272 315.823 69.2014C315.791 69.0289 315.721 68.8798 315.627 68.7386C314.78 66.5266 313.862 64.3616 312.905 62.228C327.895 45.9199 348.321 37.7149 355.703 35.142L355.687 35.1498ZM263 3.49066C270.868 9.70326 331.433 60.0081 318.309 125.358C318.278 125.209 318.254 125.107 318.247 125.076L318.152 124.73L317.878 124.511C316.419 123.35 314.85 122.636 313.234 122.252C314.254 122.173 315.023 121.82 315.564 121.405C316.388 120.777 316.709 120.032 316.709 120.032C316.709 120.032 316.654 119.224 316.097 118.353C315.54 117.482 314.466 116.557 312.434 116.282L311.446 121.938C308.873 121.679 306.261 122.142 303.884 122.879C312.144 114.47 309.249 107.324 309.085 106.956L308.943 106.634L308.637 106.454C303.9 103.685 298.699 104.845 294.502 106.869C301.154 97.0483 296.973 90.5219 296.746 90.1847L296.55 89.8944L296.22 89.7767C290.988 87.902 286.038 90.067 282.265 92.8752C287.105 82.5444 282.218 76.8338 281.952 76.5358L281.716 76.2691L281.371 76.1985C273.339 74.5276 267.11 81.509 264.075 85.8939V75.8219C264.075 67.7973 268.86 62.126 271.527 59.5923C273.252 59.9531 276.288 58.6275 277.716 57.3646C279.441 55.8271 277.975 55.0976 276.719 53.6935C275.472 52.2894 274.915 50.7441 273.19 52.2815C271.856 53.466 270.319 56.0546 270.256 57.8195C268.53 59.404 265.91 62.2436 264.075 66.205V53.5915C266.31 52.3207 267.981 47.3789 267.981 44.4452C267.981 41.0565 265.753 41.9586 263 41.9586C260.247 41.9586 258.019 41.0565 258.019 44.4452C258.019 47.3789 259.69 52.3207 261.925 53.5915V66.205C260.082 62.2436 257.47 59.404 255.744 57.8195C255.681 56.0546 254.144 53.4738 252.81 52.2815C251.085 50.7441 250.528 52.2815 249.281 53.6935C248.033 55.0976 246.559 55.8193 248.284 57.3646C249.712 58.6353 252.755 59.9531 254.473 59.5923C257.14 62.1181 261.925 67.7738 261.925 75.8219V86.0586C258.937 81.6815 252.654 74.512 244.511 76.2063L244.166 76.2769L243.931 76.5436C243.664 76.8417 238.785 82.5523 243.617 92.8831C239.844 90.0748 234.894 87.9098 229.662 89.7846L229.333 89.9023L229.137 90.1925C228.909 90.5298 224.728 97.0562 231.38 106.877C227.183 104.853 221.991 103.692 217.245 106.461L216.939 106.642L216.798 106.963C216.641 107.332 213.738 114.486 222.006 122.895C219.669 122.158 217.096 121.71 214.554 121.938L213.566 116.29C211.534 116.565 210.467 117.49 209.911 118.361C209.354 119.232 209.299 120.04 209.299 120.04C209.299 120.04 209.62 120.777 210.444 121.412C210.969 121.812 211.699 122.165 212.68 122.252C211.056 122.644 209.471 123.358 208.012 124.519L207.738 124.738L207.644 125.083C207.644 125.083 207.644 125.083 207.644 125.091C194.74 59.8669 255.148 9.68757 263 3.49066ZM210.452 68.5896C210.279 68.7543 210.146 68.9583 210.099 69.2093C210.036 69.5466 209.942 69.876 209.856 70.2055C209.605 70.8801 209.361 71.5625 209.118 72.245C206.545 77.9242 200.341 81.3286 193.963 80.0892C191.139 79.5401 188.7 77.9242 187.092 75.5396C185.484 73.1549 184.903 70.2839 185.452 67.46C186.331 62.9261 190.739 59.961 195.265 60.8395C198.764 61.522 201.047 64.9185 200.372 68.4092C200.121 69.7035 199.384 70.8173 198.293 71.5469C197.203 72.2842 195.893 72.5509 194.599 72.2999C192.598 71.9155 191.288 69.9702 191.681 67.9699C191.963 66.503 193.391 65.5382 194.865 65.8206C195.367 65.9147 195.807 66.205 196.097 66.6364C196.387 67.0678 196.489 67.5777 196.387 68.0797C196.246 68.7857 195.556 69.2485 194.865 69.1073C194.654 69.0681 194.473 68.9504 194.355 68.77C194.238 68.5974 194.191 68.3778 194.238 68.1739C194.363 67.5149 193.94 66.8796 193.281 66.7541C192.622 66.6285 191.987 67.0521 191.861 67.711C191.696 68.5582 191.869 69.4132 192.355 70.1271C192.834 70.8409 193.563 71.3272 194.41 71.492C195.391 71.6802 196.379 71.4763 197.203 70.9272C198.027 70.3702 198.584 69.5309 198.78 68.5504C198.999 67.4051 198.764 66.252 198.113 65.2872C197.462 64.3224 196.473 63.6713 195.336 63.4517C193.987 63.185 192.622 63.4673 191.485 64.2361C190.347 65.0048 189.578 66.1657 189.312 67.5149C188.668 70.8252 190.841 74.0413 194.152 74.6924C196.073 75.0689 198.034 74.6688 199.658 73.5707C201.282 72.4725 202.388 70.8095 202.764 68.8798C203.219 66.5501 202.733 64.189 201.407 62.2201C200.082 60.2512 198.074 58.9177 195.744 58.4706C189.963 57.341 184.37 61.0749 183.138 66.8011L169.929 35.0871C177.255 37.1422 198.309 44.0765 214.39 59.5452C212.985 62.479 211.668 65.499 210.475 68.5974L210.452 68.5896ZM167.426 36.3421L180.503 67.7346C175.6 64.6989 169.121 66.0481 165.873 70.8644C164.548 72.8333 164.069 75.1944 164.516 77.5241C164.971 79.8539 166.305 81.862 168.266 83.1876C171.623 85.4468 176.196 84.5604 178.463 81.203C180.346 78.4027 179.608 74.5983 176.808 72.7078C175.671 71.9391 174.298 71.6645 172.957 71.9234C171.607 72.1822 170.446 72.9588 169.678 74.0962C168.336 76.0808 168.862 78.7949 170.854 80.1362C172.556 81.2815 174.878 80.8344 176.024 79.1322C177.012 77.6575 176.628 75.6572 175.153 74.661C174.604 74.2845 173.843 74.4335 173.474 74.9905C173.098 75.5474 173.247 76.3004 173.804 76.6691C174.165 76.9123 174.267 77.4143 174.023 77.7751C173.623 78.3713 172.815 78.5282 172.219 78.1281C171.341 77.532 171.105 76.3318 171.701 75.4454C172.109 74.8414 172.721 74.4414 173.435 74.3002C174.149 74.159 174.871 74.308 175.467 74.7159C177.153 75.8533 177.6 78.1595 176.463 79.846C174.941 82.0973 171.874 82.6935 169.631 81.1717C166.681 79.1793 165.897 75.163 167.889 72.2136C170.47 68.3856 175.686 67.3737 179.514 69.9545C184.433 73.2726 185.743 79.9794 182.424 84.9055C178.95 90.0591 172.58 92.0986 166.924 90.3494C165.795 89.7924 164.657 89.259 163.512 88.7413C163.449 88.7021 163.379 88.6629 163.316 88.6237C163.175 88.5295 163.01 88.4668 162.853 88.4432C160.688 87.4784 158.508 86.592 156.327 85.7684C155.393 63.6399 164.038 43.3862 167.434 36.35L167.426 36.3421ZM79.5009 79.5009C89.4551 78.3321 167.85 71.0762 204.788 126.566C204.663 126.48 204.576 126.433 204.545 126.409L204.239 126.237L203.886 126.276C202.035 126.488 200.419 127.099 198.999 127.962C199.674 127.186 199.964 126.393 200.05 125.719C200.184 124.691 199.893 123.938 199.893 123.938C199.893 123.938 199.289 123.405 198.278 123.185C197.266 122.966 195.854 123.067 194.222 124.307L197.525 129.006C195.524 130.645 193.995 132.818 192.842 135.022C192.747 123.232 185.633 120.22 185.256 120.071L184.927 119.938L184.582 120.024C179.271 121.42 176.416 125.915 174.878 130.316C172.643 118.667 165.065 117.004 164.665 116.925L164.32 116.855L163.998 117.004C158.978 119.381 157.001 124.409 156.327 129.068C152.444 118.345 144.953 117.757 144.553 117.733L144.2 117.71L143.902 117.906C137.03 122.409 137.564 131.743 138.521 136.991L131.398 129.868C125.719 124.189 125.099 116.8 125.193 113.121C126.668 112.156 127.884 109.073 127.994 107.167C128.127 104.853 126.574 105.379 124.699 105.277C122.824 105.167 121.342 104.469 121.208 106.775C121.106 108.556 121.844 111.474 123.044 112.768C122.942 115.113 123.099 118.973 124.597 123.067L115.678 114.149C116.353 111.67 114.047 106.995 111.968 104.916C109.568 102.516 108.634 104.736 106.689 106.673C104.743 108.618 102.531 109.56 104.932 111.952C107.01 114.031 111.678 116.337 114.164 115.663L123.083 124.581C118.981 123.083 115.129 122.926 112.784 123.028C111.489 121.828 108.579 121.083 106.791 121.185C104.477 121.318 105.183 122.801 105.293 124.676C105.402 126.55 104.869 128.103 107.183 127.97C109.089 127.86 112.172 126.644 113.137 125.17C116.808 125.068 124.174 125.687 129.861 131.351L137.116 138.607C131.908 137.626 122.393 136.991 117.835 143.949L117.639 144.247L117.663 144.6C117.686 144.992 118.275 152.491 128.998 156.374C124.338 157.056 119.31 159.025 116.941 164.053L116.792 164.375L116.863 164.72C116.941 165.112 118.604 172.69 130.253 174.925C125.852 176.463 121.357 179.318 119.961 184.629L119.875 184.974L120.008 185.303C120.157 185.68 123.169 192.787 134.959 192.881C132.786 194.018 130.645 195.516 129.013 197.477L124.315 194.183C123.075 195.815 122.966 197.219 123.193 198.238C123.413 199.25 123.946 199.854 123.946 199.854C123.946 199.854 124.699 200.152 125.727 200.011C126.386 199.925 127.146 199.65 127.9 199.023C127.029 200.443 126.409 202.074 126.197 203.925L126.158 204.278L126.339 204.584C71.1076 167.583 78.3321 89.3924 79.5087 79.4538L79.5009 79.5009ZM88.3727 162.696C88.3727 162.932 88.4197 163.167 88.5609 163.379C88.7492 163.661 88.9139 163.951 89.0786 164.234C89.3924 164.908 89.7062 165.583 90.0278 166.258C90.9142 168.611 91.1495 171.168 90.6553 173.702C89.9572 177.31 87.8863 180.432 84.8428 182.487C79.9245 185.805 73.2098 184.503 69.8917 179.577C68.6445 177.726 68.1895 175.49 68.6131 173.294C69.0367 171.097 70.2996 169.199 72.1509 167.952C75.1003 165.96 79.1243 166.744 81.1089 169.693C82.6229 171.945 82.0345 175.012 79.7833 176.526C78.0968 177.663 75.7906 177.216 74.6532 175.529C73.8138 174.29 74.1433 172.596 75.3827 171.764C76.2691 171.168 77.4692 171.403 78.0575 172.282C78.4576 172.878 78.3007 173.686 77.7045 174.086C77.5241 174.204 77.3123 174.251 77.1084 174.204C76.8966 174.165 76.7162 174.047 76.5985 173.866C76.222 173.31 75.469 173.16 74.9199 173.537C74.3629 173.914 74.2217 174.667 74.5904 175.216C75.0689 175.929 75.7984 176.416 76.6456 176.581C77.4928 176.745 78.3478 176.573 79.0616 176.086C80.7638 174.941 81.2187 172.619 80.0656 170.917C79.4146 169.952 78.4262 169.301 77.2888 169.074C76.1436 168.854 74.9905 169.089 74.0256 169.74C71.6802 171.325 71.0527 174.525 72.6372 176.871C74.5198 179.663 78.3321 180.409 81.1325 178.518C84.4898 176.251 85.3762 171.678 83.117 168.321C80.3794 164.265 74.8493 163.183 70.7938 165.92C65.9147 169.207 64.5891 175.804 67.766 180.722L36.0048 167.638C42.6332 163.912 62.4084 153.927 84.7329 153.495C85.8154 156.562 87.0156 159.629 88.3648 162.673L88.3727 162.696ZM35.1498 170.313L66.5893 183.264C60.9807 184.582 57.3489 190.12 58.4627 195.822C59.3962 200.631 64.0635 203.769 68.872 202.843C70.7938 202.466 72.4646 201.368 73.5628 199.737C74.661 198.113 75.0532 196.152 74.6845 194.23C74.0413 190.92 70.8173 188.755 67.5071 189.39C64.7303 189.931 62.9026 192.63 63.4438 195.414C63.9066 197.768 66.1971 199.321 68.5504 198.858C69.5231 198.67 70.3702 198.113 70.9272 197.281C71.4841 196.458 71.688 195.462 71.492 194.489C71.1546 192.747 69.4681 191.61 67.711 191.939C67.0521 192.065 66.6285 192.7 66.7541 193.359C66.8796 194.018 67.5149 194.45 68.1739 194.316C68.3778 194.269 68.5974 194.316 68.77 194.442C68.9504 194.559 69.0681 194.74 69.1073 194.952C69.1779 195.297 69.1073 195.642 68.9112 195.924C68.7151 196.215 68.4249 196.411 68.0797 196.473C67.0286 196.677 66.0167 195.995 65.8206 194.952C65.5382 193.485 66.4952 192.057 67.9699 191.767C69.978 191.383 71.9155 192.693 72.2999 194.685C72.5509 195.979 72.2842 197.289 71.5469 198.38C70.8095 199.47 69.6956 200.207 68.4092 200.458C64.9107 201.141 61.522 198.85 60.8395 195.352C59.961 190.818 62.9261 186.417 67.46 185.531C69.5387 185.131 71.6331 185.343 73.5393 186.119L73.7511 186.205C74.3629 186.472 74.9591 186.794 75.5317 187.17C77.9163 188.778 79.5322 191.218 80.0813 194.042C81.2658 200.129 78.2223 206.067 73.0059 208.836C71.79 209.252 70.582 209.683 69.3897 210.138C69.327 210.154 69.2642 210.169 69.2014 210.185C69.0367 210.216 68.8798 210.287 68.7465 210.373C66.5344 211.228 64.3616 212.138 62.228 213.095C45.9277 198.105 37.7149 177.687 35.142 170.297L35.1498 170.313ZM3.49066 263C9.70326 255.132 60.0081 194.575 125.358 207.691C125.209 207.722 125.115 207.746 125.076 207.753L124.73 207.848L124.511 208.122C123.35 209.581 122.636 211.158 122.252 212.774C122.181 211.746 121.82 210.985 121.405 210.436C120.777 209.612 120.032 209.291 120.032 209.291C120.032 209.291 119.224 209.346 118.353 209.903C117.482 210.46 116.557 211.534 116.282 213.566L121.946 214.554C121.687 217.127 122.15 219.747 122.895 222.116C114.486 213.848 107.332 216.751 106.963 216.908L106.642 217.049L106.461 217.355C103.692 222.093 104.853 227.293 106.877 231.49C97.0562 224.838 90.522 229.019 90.1925 229.239L89.9023 229.435L89.7846 229.764C87.9098 234.996 90.0748 239.946 92.8831 243.719C82.5523 238.879 76.8338 243.766 76.5436 244.033L76.2847 244.268L76.2141 244.613C74.5355 252.654 81.5168 258.874 85.9017 261.91H75.8298C67.8052 261.91 62.1338 257.125 59.6002 254.458C59.961 252.732 58.6353 249.696 57.3724 248.269C55.8349 246.543 55.1054 248.01 53.7013 249.265C52.2972 250.512 50.7519 251.069 52.2894 252.795C53.4738 254.128 56.0624 255.666 57.8274 255.728C59.4119 257.454 62.2515 260.074 66.2128 261.91H53.6072C52.3364 259.674 47.3946 258.003 44.4609 258.003C41.0722 258.003 41.9743 260.231 41.9743 262.984C41.9743 265.738 41.0722 267.965 44.4609 267.965C47.3946 267.965 52.3364 266.295 53.6072 264.059H66.2128C62.2515 265.895 59.4119 268.514 57.8274 270.24C56.0624 270.303 53.4817 271.84 52.2894 273.174C50.7519 274.9 52.2894 275.457 53.7013 276.704C55.1054 277.951 55.8271 279.426 57.3724 277.7C58.6432 276.272 59.961 273.237 59.6002 271.511C62.1338 268.844 67.7973 264.059 75.8298 264.059H86.0586C81.6815 267.048 74.5041 273.331 76.2063 281.473L76.2769 281.818L76.5358 282.054C76.7319 282.234 79.3832 284.501 84.2309 284.501C86.592 284.501 89.4865 283.96 92.8674 282.375C90.0591 286.148 87.902 291.098 89.7767 296.314L89.8944 296.652L90.1847 296.848C90.3729 296.973 92.5222 298.354 96.1149 298.354C98.9074 298.354 102.578 297.507 106.877 294.589C104.845 298.793 103.685 303.994 106.454 308.732L106.634 309.038L106.956 309.179C107.112 309.241 108.477 309.798 110.627 309.798C113.576 309.798 118.024 308.747 122.879 303.97C122.142 306.308 121.695 308.881 121.922 311.414L116.274 312.403C116.557 314.434 117.475 315.501 118.345 316.066C119.216 316.623 120.024 316.678 120.024 316.678C120.024 316.678 120.761 316.356 121.397 315.533C121.797 315.007 122.15 314.277 122.236 313.297C122.628 314.921 123.342 316.505 124.503 317.972L124.723 318.247L125.068 318.341C59.8355 331.229 9.67189 270.828 3.47498 262.976L3.49066 263ZM68.5896 315.548C68.7543 315.713 68.9583 315.854 69.2014 315.901C69.5231 315.964 69.8368 316.05 70.1427 316.137C70.8566 316.403 71.5704 316.662 72.2921 316.913C77.932 319.502 81.3129 325.691 80.0813 332.045C79.5322 334.868 77.9163 337.308 75.5317 338.916C73.1471 340.524 70.2839 341.105 67.4522 340.556C62.9182 339.677 59.9531 335.269 60.8317 330.735C61.5141 327.244 64.9107 324.946 68.4013 325.628C71.0684 326.146 72.8098 328.734 72.2921 331.401C71.9077 333.402 69.9545 334.712 67.9621 334.319C66.4952 334.037 65.5304 332.609 65.8128 331.135C66.0167 330.091 67.0208 329.401 68.0719 329.613C68.417 329.676 68.7073 329.872 68.9034 330.162C69.0995 330.452 69.1701 330.797 69.0995 331.135C69.0602 331.346 68.9426 331.527 68.7622 331.645C68.5896 331.762 68.37 331.809 68.166 331.77C67.5071 331.652 66.8717 332.068 66.7462 332.727C66.6207 333.386 67.0443 334.021 67.7032 334.147C69.4525 334.492 71.139 333.347 71.4841 331.597C71.6724 330.617 71.4684 329.629 70.9193 328.805C70.3624 327.981 69.5231 327.424 68.5425 327.228C67.4051 327.009 66.2442 327.244 65.2794 327.895C64.3145 328.546 63.6634 329.527 63.4438 330.672C62.9026 333.457 64.7224 336.155 67.5071 336.696C70.8173 337.332 74.0335 335.167 74.6845 331.856C75.0611 329.934 74.661 327.973 73.5628 326.35C72.4646 324.726 70.8017 323.62 68.872 323.243C64.0635 322.31 59.3962 325.455 58.4627 330.264C57.341 336.037 61.067 341.638 66.7933 342.87L35.0871 356.079C37.1422 348.753 44.0765 327.707 59.5374 311.626C62.4711 313.03 65.499 314.332 68.5974 315.533L68.5896 315.548ZM36.3421 358.574L67.7346 345.497C64.6989 350.4 66.0481 356.879 70.8644 360.127C74.9277 362.864 80.45 361.79 83.1876 357.726C85.4546 354.369 84.5604 349.796 81.203 347.529C79.846 346.611 78.2144 346.282 76.6142 346.596C75.0061 346.909 73.6256 347.827 72.7078 349.184C71.1233 351.53 71.7508 354.73 74.0962 356.314C76.0808 357.656 78.7949 357.122 80.1362 355.138C81.2815 353.436 80.8344 351.114 79.1322 349.969C77.6575 348.98 75.6494 349.365 74.661 350.839C74.2845 351.396 74.4335 352.149 74.9905 352.518C75.5474 352.894 76.3004 352.745 76.6691 352.188C76.9201 351.828 77.4143 351.726 77.7751 351.977C78.3713 352.377 78.5282 353.185 78.1281 353.781C77.532 354.667 76.3318 354.895 75.4533 354.306C74.2139 353.467 73.8844 351.781 74.7238 350.541C75.8612 348.847 78.1674 348.408 79.8539 349.545C82.1051 351.059 82.7013 354.126 81.1795 356.377C79.1949 359.327 75.1709 360.111 72.2215 358.119C70.3702 356.871 69.1073 354.973 68.6837 352.777C68.2601 350.58 68.7073 348.353 69.9623 346.501C71.2017 344.658 72.9196 343.325 74.8414 342.548H74.865C78.0732 341.254 81.8384 341.52 84.9134 343.591C87.9647 345.646 90.0278 348.768 90.7259 352.377C91.1652 354.628 91.0397 356.895 90.3886 359.021C89.8238 360.174 89.2747 361.335 88.7492 362.504C88.7099 362.566 88.6786 362.629 88.6315 362.692C88.5374 362.841 88.4746 362.998 88.4511 363.155C87.4863 365.32 86.5999 367.5 85.7762 369.681C63.6399 370.599 43.4019 361.97 36.3578 358.574H36.3421ZM79.5009 446.499C78.3242 436.545 71.0527 358.166 126.566 321.212C126.48 321.337 126.433 321.424 126.409 321.455L126.237 321.761L126.276 322.114C126.488 323.965 127.099 325.581 127.962 327.001C127.186 326.326 126.393 326.036 125.719 325.95C124.691 325.816 123.938 326.107 123.938 326.107C123.938 326.107 123.405 326.711 123.185 327.722C122.966 328.734 123.067 330.146 124.307 331.778L129.006 328.475C130.645 330.476 132.818 332.005 135.022 333.151C123.232 333.253 120.228 340.359 120.079 340.736L119.946 341.065L120.032 341.411C121.428 346.721 125.915 349.576 130.323 351.114C118.683 353.349 117.02 360.927 116.941 361.327L116.871 361.672L117.02 361.994C119.389 367.014 124.425 368.991 129.076 369.665C118.353 373.548 117.765 381.047 117.741 381.439L117.718 381.792L117.914 382.09C120.997 386.797 126.354 388.029 131.108 388.029C133.288 388.029 135.344 387.77 136.991 387.472L129.876 394.586C124.197 400.258 116.808 400.877 113.129 400.783C112.164 399.308 109.081 398.1 107.175 397.983C104.861 397.849 105.387 399.403 105.285 401.277C105.175 403.152 104.477 404.635 106.783 404.768C108.564 404.87 111.482 404.133 112.776 402.925C113.129 402.94 113.505 402.948 113.921 402.948C116.274 402.948 119.593 402.642 123.075 401.372L114.156 410.29C111.678 409.608 107.003 411.922 104.924 414.001C102.524 416.401 104.743 417.334 106.681 419.28C108.618 421.225 109.568 423.437 111.96 421.037C114.039 418.958 116.345 414.291 115.67 411.804L124.589 402.885C123.091 406.988 122.934 410.839 123.036 413.185C121.836 414.479 121.091 417.389 121.201 419.178C121.334 421.492 122.816 420.786 124.691 420.676C126.566 420.566 128.119 421.092 127.986 418.786C127.876 416.879 126.66 413.797 125.185 412.832C125.091 409.153 125.711 401.764 131.382 396.092L138.623 388.852C137.642 394.061 137.007 403.576 143.972 408.133L144.27 408.329L144.623 408.306C145.016 408.282 152.515 407.694 156.397 396.971C157.08 401.63 159.049 406.659 164.069 409.035L164.391 409.184L164.736 409.114C165.128 409.035 172.706 407.372 174.941 395.724C176.479 400.124 179.334 404.619 184.644 406.015L184.99 406.102L185.319 405.968C185.696 405.819 192.802 402.807 192.896 391.017C194.034 393.19 195.532 395.331 197.493 396.963L194.199 401.662C195.83 402.901 197.234 403.011 198.254 402.783C199.266 402.564 199.87 402.03 199.87 402.03C199.87 402.03 200.168 401.277 200.027 400.25C199.941 399.591 199.666 398.83 199.038 398.077C200.458 398.948 202.09 399.567 203.941 399.779L204.294 399.818L204.6 399.646C167.599 454.877 89.4159 447.644 79.4695 446.476L79.5009 446.499ZM162.688 437.627C162.924 437.627 163.167 437.588 163.379 437.447C163.645 437.267 163.912 437.117 164.187 436.961C164.893 436.639 165.599 436.302 166.305 435.964C168.65 435.094 171.184 434.866 173.702 435.353C177.31 436.051 180.432 438.122 182.487 441.165C185.805 446.083 184.503 452.79 179.577 456.116C175.749 458.697 170.533 457.685 167.952 453.857C166.987 452.429 166.634 450.711 166.964 449.017C167.293 447.323 168.266 445.864 169.693 444.899C170.784 444.162 172.094 443.895 173.388 444.146C174.674 444.397 175.796 445.134 176.526 446.225C177.075 447.04 177.279 448.029 177.09 448.994C176.902 449.966 176.345 450.798 175.529 451.355C174.933 451.763 174.204 451.904 173.498 451.77C172.784 451.629 172.172 451.221 171.764 450.625C171.474 450.202 171.372 449.684 171.474 449.182C171.568 448.68 171.858 448.241 172.29 447.95C172.886 447.55 173.694 447.707 174.094 448.303C174.212 448.476 174.259 448.696 174.212 448.899C174.172 449.111 174.055 449.292 173.874 449.409C173.317 449.786 173.176 450.539 173.545 451.088C173.914 451.645 174.667 451.786 175.224 451.417C175.937 450.939 176.424 450.209 176.588 449.362C176.753 448.515 176.581 447.66 176.094 446.946C174.949 445.244 172.627 444.797 170.925 445.942C169.96 446.593 169.309 447.582 169.089 448.719C168.87 449.856 169.105 451.017 169.756 451.982C170.525 453.12 171.686 453.888 173.035 454.155C174.384 454.414 175.749 454.139 176.886 453.371C178.244 452.453 179.161 451.072 179.467 449.464C179.781 447.856 179.452 446.232 178.534 444.875C176.267 441.518 171.694 440.624 168.336 442.891C166.367 444.216 165.034 446.232 164.587 448.554C164.132 450.884 164.618 453.245 165.936 455.214C168.023 458.305 171.435 459.968 174.902 459.968C176.91 459.968 178.934 459.403 180.738 458.242L167.662 490.003C163.936 483.367 153.95 463.576 153.519 441.275C156.586 440.192 159.645 438.984 162.688 437.635V437.627ZM170.313 490.85L183.264 459.411C184.425 464.337 188.833 467.733 193.759 467.733C194.442 467.733 195.132 467.671 195.822 467.537C198.152 467.082 200.16 465.749 201.486 463.788C202.812 461.819 203.29 459.458 202.843 457.128C202.074 453.151 198.207 450.555 194.23 451.323C190.92 451.967 188.747 455.183 189.39 458.501C189.649 459.85 190.426 461.011 191.563 461.78C192.7 462.548 194.065 462.823 195.414 462.564C197.768 462.109 199.313 459.819 198.858 457.457C198.466 455.441 196.52 454.124 194.489 454.516C192.747 454.853 191.602 456.548 191.939 458.297C192.065 458.956 192.7 459.379 193.359 459.254C194.018 459.128 194.442 458.493 194.316 457.834C194.23 457.403 194.512 456.979 194.952 456.901C195.642 456.767 196.34 457.222 196.473 457.928C196.677 458.971 195.995 459.991 194.952 460.187C194.238 460.328 193.516 460.187 192.92 459.772C192.316 459.364 191.908 458.752 191.775 458.038C191.383 456.038 192.693 454.092 194.693 453.708C197.36 453.19 199.948 454.932 200.466 457.599C200.796 459.293 200.45 461.011 199.486 462.439C198.521 463.866 197.062 464.839 195.367 465.168C190.833 466.047 186.433 463.082 185.546 458.548C185.146 456.485 185.358 454.39 186.127 452.484L186.229 452.241C186.496 451.629 186.809 451.033 187.194 450.476C188.802 448.092 191.241 446.476 194.065 445.926C197.674 445.228 201.337 445.974 204.388 448.021C206.287 449.3 207.808 450.994 208.852 452.963C209.267 454.186 209.699 455.394 210.154 456.587C210.169 456.657 210.193 456.728 210.209 456.799C210.24 456.971 210.311 457.12 210.405 457.261C211.252 459.473 212.17 461.638 213.127 463.772C198.136 480.08 177.71 488.285 170.329 490.858L170.313 490.85ZM263 522.509C255.132 516.297 194.567 465.992 207.691 400.642C207.722 400.791 207.746 400.893 207.753 400.924L207.848 401.27L208.122 401.489C209.581 402.65 211.158 403.364 212.782 403.748C211.754 403.819 210.985 404.18 210.444 404.595C209.62 405.223 209.299 405.968 209.299 405.968C209.299 405.968 209.354 406.776 209.911 407.647C210.467 408.518 211.542 409.443 213.566 409.718L214.562 404.054C215.048 404.101 215.543 404.133 216.037 404.133C218.131 404.133 220.21 403.709 222.14 403.105C213.864 411.514 216.759 418.676 216.923 419.044L217.064 419.366L217.37 419.546C219.371 420.715 221.449 421.186 223.505 421.186C226.321 421.186 229.082 420.292 231.513 419.123C224.846 428.952 229.035 435.486 229.254 435.823L229.45 436.113L229.78 436.231C231.145 436.717 232.486 436.937 233.796 436.937C237.506 436.937 240.942 435.219 243.735 433.14C238.903 443.463 243.782 449.174 244.048 449.472L244.284 449.739L244.629 449.809C245.468 449.982 246.276 450.06 247.076 450.06C253.932 450.06 259.211 444.052 261.933 440.114V450.178C261.933 458.203 257.14 463.866 254.473 466.4C252.748 466.039 249.712 467.365 248.284 468.628C246.559 470.165 248.025 470.895 249.281 472.299C250.528 473.703 251.085 475.248 252.81 473.703C254.144 472.518 255.681 469.93 255.744 468.165C257.47 466.58 260.09 463.741 261.925 459.779V472.393C259.69 473.664 258.019 478.605 258.019 481.539C258.019 484.928 260.247 484.026 263 484.026C265.753 484.026 267.981 484.928 267.981 481.539C267.981 478.605 266.31 473.664 264.075 472.393V459.779C265.91 463.741 268.53 466.58 270.256 468.165C270.319 469.93 271.856 472.51 273.19 473.703C274.915 475.248 275.472 473.703 276.719 472.299C277.967 470.895 279.441 470.173 277.716 468.628C276.288 467.357 273.252 466.039 271.527 466.4C268.86 463.866 264.075 458.203 264.075 450.178V439.941C266.757 443.863 272.091 450.053 279.041 450.053C279.834 450.053 280.649 449.974 281.489 449.802L281.834 449.731L282.069 449.464C282.336 449.166 287.215 443.456 282.383 433.133C285.176 435.211 288.603 436.929 292.322 436.929C293.632 436.929 294.973 436.717 296.338 436.223L296.667 436.106L296.863 435.815C297.091 435.478 301.272 428.944 294.604 419.115C297.036 420.292 299.797 421.178 302.613 421.178C304.668 421.178 306.747 420.707 308.747 419.539L309.053 419.358L309.194 419.037C309.351 418.668 312.254 411.506 303.978 403.097C305.9 403.701 307.986 404.125 310.081 404.125C310.536 404.125 310.991 404.093 311.438 404.054L312.426 409.71C314.458 409.427 315.525 408.51 316.089 407.639C316.646 406.768 316.701 405.96 316.701 405.96C316.701 405.96 316.38 405.223 315.556 404.588C315.031 404.18 314.293 403.835 313.313 403.748C314.936 403.356 316.521 402.642 317.988 401.481L318.262 401.262L318.356 400.917C318.356 400.917 318.356 400.917 318.356 400.909C331.252 466.125 270.852 516.305 262.992 522.501L263 522.509ZM315.548 457.403C315.713 457.238 315.854 457.042 315.901 456.791C315.964 456.453 316.058 456.132 316.144 455.802C316.395 455.12 316.646 454.43 316.89 453.739C319.462 448.068 325.667 444.671 332.045 445.911C334.868 446.46 337.308 448.076 338.916 450.46C340.524 452.845 341.105 455.716 340.556 458.54C339.677 463.074 335.261 466.039 330.735 465.16C329.04 464.831 327.581 463.866 326.616 462.431C325.652 461.003 325.306 459.277 325.636 457.591C326.154 454.924 328.75 453.182 331.409 453.7C333.409 454.084 334.719 456.03 334.327 458.03C334.186 458.744 333.786 459.356 333.182 459.764C332.578 460.172 331.856 460.321 331.15 460.179C330.107 459.975 329.425 458.964 329.629 457.92C329.77 457.214 330.452 456.759 331.15 456.893C331.582 456.979 331.864 457.395 331.786 457.826C331.66 458.485 332.084 459.12 332.743 459.246C333.409 459.371 334.037 458.948 334.163 458.289C334.5 456.548 333.362 454.853 331.613 454.508C329.589 454.124 327.636 455.434 327.244 457.45C326.789 459.803 328.326 462.093 330.688 462.548C332.037 462.807 333.402 462.533 334.539 461.764C335.676 460.995 336.445 459.834 336.712 458.485C337.355 455.175 335.182 451.959 331.872 451.308C327.887 450.539 324.036 453.143 323.259 457.112C322.804 459.442 323.29 461.803 324.616 463.772C325.942 465.741 327.958 467.074 330.28 467.522C330.97 467.655 331.66 467.718 332.343 467.718C337.332 467.718 341.803 464.227 342.885 459.191L356.095 490.897C348.768 488.85 327.73 481.923 311.634 466.439C313.038 463.505 314.356 460.485 315.556 457.379L315.548 457.403ZM358.574 489.658L345.497 458.273C347.254 459.364 349.215 459.889 351.153 459.889C354.62 459.889 358.04 458.218 360.119 455.136C362.857 451.072 361.782 445.55 357.719 442.812C356.095 441.714 354.134 441.314 352.212 441.691C350.29 442.067 348.619 443.165 347.521 444.797C346.611 446.154 346.274 447.786 346.588 449.386C346.901 450.994 347.819 452.374 349.176 453.292C350.314 454.061 351.686 454.335 353.028 454.077C354.377 453.818 355.538 453.041 356.307 451.904C356.958 450.939 357.193 449.778 356.973 448.641C356.754 447.503 356.095 446.515 355.138 445.864C354.314 445.307 353.326 445.103 352.345 445.299C351.373 445.487 350.525 446.052 349.969 446.876C349.49 447.589 349.317 448.445 349.482 449.292C349.647 450.139 350.133 450.868 350.839 451.347C351.396 451.723 352.149 451.574 352.526 451.017C352.902 450.46 352.753 449.707 352.196 449.331C352.016 449.213 351.898 449.033 351.859 448.821C351.82 448.609 351.859 448.397 351.984 448.225C352.181 447.935 352.471 447.739 352.816 447.676C353.153 447.613 353.506 447.676 353.789 447.872C354.212 448.162 354.502 448.594 354.604 449.103C354.699 449.605 354.604 450.123 354.306 450.547C353.898 451.151 353.287 451.559 352.573 451.692C351.867 451.833 351.137 451.692 350.533 451.276C349.718 450.727 349.161 449.888 348.972 448.923C348.784 447.95 348.988 446.97 349.537 446.154C350.274 445.064 351.388 444.326 352.675 444.075C353.969 443.824 355.279 444.091 356.369 444.828C359.319 446.821 360.103 450.837 358.111 453.786C355.53 457.614 350.314 458.634 346.486 456.046C344.736 454.869 343.411 453.237 342.603 451.339L342.509 451.112C342.266 450.492 342.069 449.841 341.936 449.174C341.387 446.35 341.967 443.479 343.576 441.102C345.631 438.051 348.753 435.988 352.361 435.29C354.604 434.85 356.864 434.976 358.989 435.627C360.158 436.2 361.335 436.757 362.519 437.29C362.574 437.329 362.629 437.353 362.684 437.392C362.833 437.494 362.99 437.549 363.155 437.58C365.32 438.545 367.492 439.439 369.673 440.263C370.599 462.391 361.962 482.637 358.566 489.674L358.574 489.658ZM446.499 446.499C436.545 447.676 358.166 454.947 321.212 399.434C321.337 399.52 321.424 399.567 321.455 399.591L321.761 399.763L322.114 399.724C323.965 399.512 325.581 398.901 327.001 398.038C326.326 398.814 326.036 399.607 325.95 400.281C325.816 401.309 326.107 402.062 326.107 402.062C326.107 402.062 326.711 402.595 327.722 402.815C328.734 403.034 330.146 402.933 331.778 401.693L328.475 396.994C330.476 395.355 332.005 393.182 333.151 390.978C333.253 402.768 340.359 405.772 340.728 405.921L341.058 406.055L341.403 405.968C346.713 404.572 349.568 400.077 351.106 395.677C353.342 407.325 360.919 408.988 361.319 409.067L361.664 409.137L361.986 408.988C367.006 406.619 368.975 401.583 369.657 396.924C373.54 407.647 381.032 408.235 381.432 408.259L381.785 408.282L382.083 408.086C388.954 403.584 388.421 394.249 387.464 389.001L394.586 396.124C400.258 401.795 400.877 409.192 400.783 412.863C399.308 413.828 398.093 416.911 397.983 418.817C397.849 421.131 399.403 420.605 401.277 420.707C403.152 420.809 404.635 421.515 404.768 419.209C404.87 417.429 404.133 414.511 402.932 413.216C403.034 410.871 402.878 407.012 401.379 402.917L410.298 411.836C409.624 414.314 411.93 418.99 414.008 421.068C416.409 423.469 417.342 421.249 419.288 419.311C421.233 417.366 423.445 416.425 421.045 414.032C418.966 411.953 414.291 409.647 411.812 410.322L402.893 401.403C406.384 402.681 409.694 402.98 412.047 402.98C412.463 402.98 412.84 402.972 413.193 402.956C414.487 404.156 417.397 404.901 419.186 404.799C421.5 404.666 420.794 403.184 420.692 401.309C420.582 399.434 421.108 397.881 418.801 398.014C416.895 398.124 413.812 399.34 412.848 400.815C409.169 400.909 401.779 400.289 396.1 394.61L388.86 387.37C390.547 387.683 392.672 387.966 394.947 387.966C399.701 387.966 405.058 386.734 408.141 382.028L408.337 381.73L408.314 381.377C408.29 380.984 407.702 373.485 396.979 369.603C401.638 368.92 406.666 366.951 409.035 361.931L409.184 361.609L409.114 361.264C409.035 360.872 407.372 353.294 395.724 351.051C400.124 349.514 404.619 346.658 406.015 341.348L406.102 341.003L405.968 340.673C405.819 340.297 402.807 333.19 391.025 333.088C393.198 331.95 395.339 330.452 396.963 328.499L401.662 331.794C402.901 330.162 403.011 328.758 402.783 327.738C402.564 326.726 402.03 326.122 402.03 326.122C402.03 326.122 401.277 325.824 400.25 325.965C399.591 326.052 398.83 326.326 398.077 326.954C398.948 325.526 399.567 323.902 399.779 322.051L399.818 321.698L399.646 321.392C454.877 358.393 447.644 436.576 446.476 446.523L446.499 446.499ZM437.627 363.304C437.627 363.068 437.58 362.833 437.439 362.621C437.251 362.339 437.086 362.049 436.921 361.758C436.608 361.084 436.294 360.409 435.972 359.742C435.086 357.389 434.85 354.832 435.345 352.298C436.051 348.69 438.114 345.568 441.157 343.513C443.542 341.905 446.413 341.324 449.237 341.873C452.061 342.422 454.5 344.038 456.108 346.423C458.689 350.251 457.677 355.459 453.849 358.048C450.9 360.04 446.876 359.256 444.891 356.307C444.154 355.216 443.887 353.906 444.138 352.612C444.389 351.318 445.126 350.204 446.217 349.474C447.911 348.337 450.209 348.784 451.347 350.471C451.755 351.075 451.904 351.796 451.763 352.502C451.621 353.216 451.214 353.828 450.617 354.236C450.194 354.526 449.676 354.628 449.174 354.534C448.672 354.432 448.233 354.142 447.942 353.718C447.746 353.428 447.676 353.083 447.746 352.745C447.817 352.4 448.005 352.11 448.295 351.914C448.468 351.796 448.68 351.757 448.892 351.788C449.103 351.828 449.284 351.945 449.401 352.126C449.77 352.683 450.523 352.824 451.088 352.455C451.645 352.079 451.786 351.326 451.417 350.769C450.421 349.302 448.421 348.902 446.946 349.898C446.123 350.455 445.558 351.294 445.37 352.275C445.181 353.255 445.377 354.244 445.934 355.067C446.585 356.032 447.574 356.683 448.711 356.903C449.849 357.122 451.01 356.887 451.974 356.244C454.32 354.659 454.947 351.459 453.363 349.114C452.453 347.756 451.064 346.839 449.456 346.525C447.856 346.219 446.225 346.541 444.868 347.458C443.244 348.557 442.138 350.22 441.761 352.149C441.385 354.071 441.785 356.032 442.883 357.656C445.621 361.719 451.151 362.794 455.206 360.056C460.077 356.769 461.411 350.172 458.234 345.254L490.003 358.338C483.375 362.064 463.599 372.05 441.275 372.481C440.192 369.414 438.984 366.347 437.643 363.304H437.627ZM490.85 355.687L459.411 342.736C465.019 341.418 468.651 335.88 467.537 330.178C467.082 327.848 465.749 325.84 463.788 324.514C461.819 323.188 459.458 322.702 457.128 323.157C453.151 323.934 450.547 327.793 451.323 331.77C451.967 335.08 455.183 337.245 458.501 336.61C461.278 336.069 463.105 333.362 462.564 330.586C462.109 328.232 459.803 326.695 457.457 327.142C456.485 327.33 455.638 327.887 455.081 328.719C454.524 329.542 454.32 330.538 454.516 331.511C454.853 333.253 456.548 334.398 458.297 334.061C458.956 333.935 459.379 333.3 459.254 332.641C459.128 331.982 458.501 331.558 457.834 331.684C457.403 331.77 456.979 331.488 456.901 331.056C456.83 330.719 456.901 330.366 457.097 330.083C457.293 329.793 457.583 329.597 457.928 329.534C458.971 329.33 459.991 330.013 460.187 331.056C460.47 332.523 459.513 333.951 458.038 334.241C456.03 334.633 454.092 333.315 453.708 331.315C453.19 328.656 454.932 326.059 457.599 325.542C459.293 325.212 461.011 325.565 462.439 326.522C463.866 327.487 464.839 328.946 465.168 330.64C466.047 335.174 463.082 339.575 458.548 340.454C456.485 340.861 454.398 340.65 452.492 339.881L452.241 339.779C451.629 339.512 451.041 339.198 450.476 338.814C448.092 337.206 446.476 334.767 445.926 331.943C445.221 328.334 445.966 324.671 448.021 321.62C449.3 319.721 450.994 318.207 452.963 317.164C454.194 316.741 455.426 316.309 456.634 315.846C456.689 315.831 456.751 315.815 456.806 315.807C456.979 315.776 457.136 315.697 457.269 315.603C459.481 314.756 461.646 313.846 463.78 312.889C480.08 327.879 488.293 348.298 490.866 355.687H490.85ZM400.642 318.309C400.783 318.278 400.885 318.254 400.924 318.247L401.27 318.152L401.489 317.878C402.65 316.419 403.364 314.842 403.748 313.226C403.827 314.254 404.18 315.015 404.595 315.556C405.223 316.38 405.968 316.701 405.968 316.701C405.968 316.701 406.776 316.646 407.647 316.089C408.518 315.533 409.443 314.458 409.718 312.426L404.062 311.438C404.321 308.865 403.858 306.253 403.113 303.876C407.976 308.653 412.416 309.704 415.366 309.704C417.523 309.704 418.888 309.147 419.037 309.085L419.358 308.943L419.539 308.637C422.308 303.892 421.147 298.691 419.115 294.494C423.414 297.412 427.085 298.26 429.877 298.26C433.47 298.26 435.619 296.879 435.808 296.754L436.098 296.557L436.215 296.228C438.09 291.004 435.933 286.062 433.125 282.289C436.506 283.873 439.4 284.415 441.761 284.415C446.609 284.415 449.26 282.148 449.456 281.967L449.723 281.732L449.794 281.387C451.472 273.346 444.491 267.126 440.106 264.09H450.178C458.203 264.09 463.866 268.875 466.4 271.542C466.039 273.268 467.365 276.304 468.628 277.731C470.165 279.457 470.895 277.99 472.299 276.735C473.703 275.488 475.248 274.931 473.703 273.205C472.518 271.872 469.93 270.334 468.165 270.272C466.58 268.546 463.741 265.926 459.779 264.09H472.393C473.671 266.326 478.605 267.997 481.539 267.997C484.928 267.997 484.026 265.769 484.026 263.016C484.026 260.262 484.928 258.035 481.539 258.035C478.605 258.035 473.664 259.705 472.393 261.941H459.779C463.741 260.098 466.58 257.486 468.165 255.76C469.93 255.697 472.51 254.16 473.703 252.826C475.24 251.093 473.703 250.543 472.299 249.296C470.895 248.049 470.173 246.574 468.628 248.3C467.357 249.728 466.039 252.763 466.4 254.489C463.866 257.156 458.203 261.941 450.178 261.941H439.941C444.318 258.952 451.496 252.669 449.794 244.527L449.723 244.182L449.456 243.946C449.158 243.68 443.44 238.801 433.117 243.633C435.925 239.86 438.098 234.91 436.223 229.678L436.106 229.348L435.815 229.152C435.478 228.925 428.944 224.744 419.131 231.404C421.155 227.199 422.315 222.006 419.546 217.268L419.366 216.962L419.044 216.821C418.676 216.657 411.522 213.762 403.113 222.03C403.85 219.692 404.297 217.119 404.07 214.578L409.718 213.589C409.443 211.558 408.518 210.491 407.647 209.926C406.776 209.369 405.968 209.314 405.968 209.314C405.968 209.314 405.231 209.636 404.595 210.46C404.188 210.985 403.842 211.715 403.756 212.695C403.372 211.071 402.65 209.487 401.489 208.02L401.27 207.746L400.924 207.651C400.924 207.651 400.924 207.651 400.917 207.651C466.141 194.763 516.312 255.164 522.509 263.016C516.297 270.883 466 331.456 400.642 318.325V318.309Z" fill="white" fill-opacity="0.05"/>
</svg>
