<svg width="17" height="17" viewBox="0 0 17 17" fill="none" xmlns="http://www.w3.org/2000/svg">
<path d="M7.86189 2.125C5.27718 2.12965 3.92369 2.19312 3.05871 3.05824C2.12524 3.99185 2.12524 5.49448 2.12524 8.4997C2.12524 11.505 2.12524 13.0076 3.05871 13.9412C3.99217 14.8748 5.49456 14.8748 8.49935 14.8748C11.5041 14.8748 13.0065 14.8748 13.94 13.9412C14.8049 13.0761 14.8684 11.7224 14.873 9.13726" stroke="#343434" stroke-width="1.5" stroke-linecap="round" stroke-linejoin="round"/>
<path d="M14.5605 2.47629L7.82617 9.24973M14.5605 2.47629C14.2106 2.12594 11.8535 2.1586 11.3552 2.16569M14.5605 2.47629C14.9104 2.82665 14.8778 5.18681 14.8707 5.68576" stroke="#343434" stroke-width="1.5" stroke-linecap="round" stroke-linejoin="round"/>
</svg>
