<svg width="453" height="129" viewBox="0 0 453 129" fill="none" xmlns="http://www.w3.org/2000/svg">
<path d="M367.784 34.9773L387.477 23.4823C392.382 20.6193 397.369 15.595 402.866 15.7186C407.838 15.8304 413.326 20.8184 417.781 23.3771L438.034 35.0107C447.298 40.3317 453 50.1374 453 60.7459V86.0254C453 96.0236 447.93 105.353 439.506 110.858L419.264 124.085C409.167 130.683 396.061 130.634 386.014 123.963L366.309 110.878C357.991 105.355 353 96.0874 353 86.1674V60.6073C353 50.0733 358.623 40.3248 367.784 34.9773Z" fill="#0F0F10"/>
<path d="M388.724 37.4573L397.221 35.1041C407.703 32.2015 414.048 25.9632 426.616 42.7978L433.102 49.2721C440.631 56.7869 443.56 67.7 440.794 77.9273L437.843 88.8389C435.237 98.4757 427.928 106.176 418.379 109.346L409.343 112.346C397.832 116.167 385.131 112.745 377.159 103.675L371.138 96.8256C364.577 89.3608 362.193 79.1516 364.779 69.5904L367.803 58.4076C370.55 48.2523 378.503 40.2876 388.724 37.4573Z" fill="white"/>
<path d="M439.327 16.2497C439.327 18.5967 437.407 20.4994 435.038 20.4994C432.669 20.4994 430.748 18.5967 430.748 16.2497C430.748 13.9027 432.669 12 435.038 12C437.407 12 439.327 13.9027 439.327 16.2497Z" fill="#C8A54B"/>
<path d="M198.357 75C196.821 75 195.541 74.552 194.517 73.656C193.536 72.7173 193.045 71.352 193.045 69.56V64.632H197.525V69.496H206.165C207.616 69.496 208.81 69.4533 209.749 69.368C210.688 69.2827 211.434 69.1547 211.989 68.984C212.544 68.7707 212.928 68.4933 213.141 68.152C213.354 67.8107 213.461 67.3627 213.461 66.808C213.461 66.296 213.354 65.6773 213.141 64.952C212.928 64.2267 212.544 63.1173 211.989 61.624L205.845 44.728L210.389 43.064L216.917 60.984C217.557 62.6907 218.112 64.0987 218.581 65.208C219.093 66.2747 219.605 67.128 220.117 67.768C220.629 68.408 221.141 68.856 221.653 69.112C222.208 69.368 222.826 69.496 223.509 69.496H225.109V73.72L223.829 75C222.677 75 221.653 74.8933 220.757 74.68C219.904 74.4667 219.136 74.1467 218.453 73.72C217.77 73.2507 217.152 72.6533 216.597 71.928C216.042 71.2027 215.509 70.3067 214.997 69.24H214.677C214.421 71.3307 213.61 72.824 212.245 73.72C210.88 74.5733 208.853 75 206.165 75H198.357ZM237.285 64.056C237.285 66.616 238.117 68.2587 239.781 68.984L243.173 63.288C244.794 60.472 246.437 58.1467 248.101 56.312C249.765 54.4347 251.45 52.9413 253.157 51.832C254.864 50.7227 256.592 49.9333 258.341 49.464C260.133 48.9947 261.989 48.76 263.909 48.76C268.048 48.76 271.269 49.912 273.573 52.216C275.877 54.4773 277.029 57.6133 277.029 61.624C277.029 66.4453 275.813 69.88 273.381 71.928C270.949 73.976 267.365 75 262.629 75H243.685C237.797 75 234.341 72.9093 233.317 68.728H232.997C232.528 71.0747 231.61 72.7173 230.245 73.656C228.88 74.552 226.746 75 223.845 75V70.776L225.125 69.496H227.365C230.992 69.496 232.805 67.6827 232.805 64.056V59.064H237.285V64.056ZM262.629 69.496C265.829 69.496 268.282 68.9627 269.989 67.896C271.696 66.8293 272.549 64.952 272.549 62.264C272.549 59.6187 271.866 57.6347 270.501 56.312C269.178 54.9467 267.301 54.264 264.869 54.264H262.949C261.242 54.264 259.685 54.4347 258.277 54.776C256.912 55.0747 255.589 55.6293 254.309 56.44C253.072 57.208 251.834 58.296 250.597 59.704C249.402 61.0693 248.122 62.7973 246.757 64.888L244.005 69.176L244.197 69.496H262.629ZM295.811 75C293.763 75 292.014 74.8293 290.563 74.488C289.155 74.1467 288.003 73.592 287.107 72.824C286.254 72.0133 285.635 70.968 285.251 69.688C284.867 68.408 284.675 66.8507 284.675 65.016V27.64H289.411V65.016C289.411 66.6373 289.859 67.7893 290.755 68.472C291.651 69.1547 293.038 69.496 294.915 69.496H297.155V73.72L295.875 75H295.811ZM295.845 70.776L297.125 69.496H309.221C310.97 69.496 312.442 69.3467 313.637 69.048C314.832 68.7493 315.792 68.2587 316.517 67.576C317.285 66.8933 317.818 66.0187 318.117 64.952C318.458 63.8427 318.629 62.4987 318.629 60.92V58.872H318.309C317.712 60.28 316.709 61.3893 315.301 62.2C313.936 63.0107 312.314 63.416 310.437 63.416C307.024 63.416 304.378 62.5413 302.501 60.792C300.624 59.0427 299.685 56.568 299.685 53.368C299.685 51.4907 299.962 49.72 300.517 48.056C301.114 46.392 301.925 44.9413 302.949 43.704C303.973 42.4667 305.189 41.4853 306.597 40.76C308.048 40.0347 309.626 39.672 311.333 39.672C315.002 39.672 317.882 41.2507 319.973 44.408C322.064 47.5653 323.109 52.0027 323.109 57.72C323.109 60.92 322.874 63.6293 322.405 65.848C321.936 68.0667 321.146 69.8587 320.037 71.224C318.97 72.5467 317.541 73.5067 315.749 74.104C314 74.7013 311.824 75 309.221 75H295.845V70.776ZM311.717 57.784C313.552 57.784 315.002 57.6347 316.069 57.336C317.178 56.9947 318.032 56.4827 318.629 55.8C318.544 52.5573 317.818 49.976 316.453 48.056C315.088 46.136 313.253 45.176 310.949 45.176C308.773 45.176 307.088 45.88 305.893 47.288C304.741 48.6533 304.165 50.4667 304.165 52.728C304.165 54.52 304.656 55.8213 305.637 56.632C306.661 57.4 308.261 57.784 310.437 57.784H311.717ZM314.917 31.992C314.064 31.992 313.381 31.7573 312.869 31.288C312.357 30.776 312.101 29.9653 312.101 28.856C312.101 27.7467 312.357 26.9573 312.869 26.488C313.381 25.976 314.064 25.72 314.917 25.72H315.621C316.474 25.72 317.157 25.976 317.669 26.488C318.181 26.9573 318.437 27.7467 318.437 28.856C318.437 29.9653 318.181 30.776 317.669 31.288C317.157 31.7573 316.474 31.992 315.621 31.992H314.917ZM306.661 31.992C305.808 31.992 305.125 31.7573 304.613 31.288C304.101 30.776 303.845 29.9653 303.845 28.856C303.845 27.7467 304.101 26.9573 304.613 26.488C305.125 25.976 305.808 25.72 306.661 25.72H307.365C308.218 25.72 308.901 25.976 309.413 26.488C309.925 26.9573 310.181 27.7467 310.181 28.856C310.181 29.9653 309.925 30.776 309.413 31.288C308.901 31.7573 308.218 31.992 307.365 31.992H306.661Z" fill="black"/>
<path d="M15.804 119.728C14.396 119.728 13.116 119.525 11.964 119.12C10.8333 118.715 9.87333 118.117 9.084 117.328C8.29467 116.56 7.68667 115.611 7.26 114.48C6.83333 113.371 6.62 112.101 6.62 110.672C6.62 109.755 6.748 108.859 7.004 107.984C7.28133 107.088 7.74 106.235 8.38 105.424C9.04133 104.592 9.916 103.803 11.004 103.056C12.092 102.309 13.4467 101.616 15.068 100.976L21.628 98.416V98.288L10.108 97.872V100.368H7.868V97.904C7.868 96.944 8.17733 96.2507 8.796 95.824C9.41467 95.376 10.2787 95.184 11.388 95.248L23.58 95.984V100.208L22.044 100.784V104.368C22.044 105.435 22.2787 106.181 22.748 106.608C23.2173 107.035 23.9427 107.248 24.924 107.248H26.044V109.36L25.404 110C24.4227 110 23.5907 109.904 22.908 109.712C22.2467 109.52 21.7027 109.221 21.276 108.816C20.8707 108.389 20.572 107.845 20.38 107.184C20.2093 106.501 20.124 105.669 20.124 104.688V101.52L15.356 103.312C13.1587 104.123 11.548 105.051 10.524 106.096C9.5 107.141 8.988 108.432 8.988 109.968V110.736C8.988 112.677 9.596 114.181 10.812 115.248C12.0493 116.315 13.7133 116.848 15.804 116.848C17.34 116.848 18.7053 116.592 19.9 116.08C21.0947 115.589 22.236 114.779 23.324 113.648L25.052 115.792C24.3907 116.475 23.7187 117.061 23.036 117.552C22.3533 118.064 21.6387 118.48 20.892 118.8C20.1453 119.12 19.3453 119.355 18.492 119.504C17.66 119.653 16.764 119.728 15.804 119.728ZM15.516 111.184C15.0893 111.184 14.748 111.056 14.492 110.8C14.236 110.565 14.108 110.171 14.108 109.616C14.108 109.061 14.236 108.667 14.492 108.432C14.748 108.176 15.0893 108.048 15.516 108.048H15.868C16.2947 108.048 16.636 108.176 16.892 108.432C17.148 108.667 17.276 109.061 17.276 109.616C17.276 110.171 17.148 110.565 16.892 110.8C16.636 111.056 16.2947 111.184 15.868 111.184H15.516ZM25.3912 107.888L26.0312 107.248H27.1193C28.0579 107.248 28.9219 107.216 29.7113 107.152C30.5219 107.088 31.3433 106.971 32.1753 106.8C33.0073 106.608 33.8819 106.341 34.7993 106C35.7379 105.659 36.7939 105.211 37.9673 104.656L40.9113 103.248V103.12L36.1753 102.064L29.5513 100.432V103.184H27.3113V100.72C27.3113 99.824 27.5566 99.152 28.0473 98.704C28.5593 98.2347 29.1993 98 29.9673 98C30.2019 98 30.4793 98.032 30.7993 98.096C31.1406 98.1387 31.6633 98.2453 32.3673 98.416L40.1753 100.432C41.3486 100.731 42.3299 100.944 43.1193 101.072C43.9086 101.179 44.5913 101.232 45.1673 101.232H45.6793V103.984H43.2473V104.368C43.2473 105.435 43.4819 106.181 43.9513 106.608C44.4206 107.035 45.1459 107.248 46.1273 107.248H47.2473V109.36L46.6073 110C45.6686 110 44.8686 109.915 44.2073 109.744C43.5459 109.573 43.0019 109.296 42.5753 108.912C42.1699 108.507 41.8606 107.995 41.6473 107.376C41.4553 106.757 41.3486 106 41.3273 105.104L38.8313 106.608C37.5086 107.397 36.3353 108.027 35.3113 108.496C34.2873 108.944 33.3273 109.285 32.4313 109.52C31.5353 109.733 30.6606 109.872 29.8073 109.936C28.9753 109.979 28.0793 110 27.1193 110H25.3912V107.888ZM46.61 107.888L47.25 107.248H48.178C49.202 107.248 49.938 107.013 50.386 106.544C50.8553 106.075 51.09 105.328 51.09 104.304V86.32H53.458V104.304C53.458 106.267 53.0313 107.707 52.178 108.624C51.346 109.541 50.0127 110 48.178 110H46.61V107.888ZM58.2438 86.32H60.6118V110H58.2438V86.32ZM83.9385 110.384C81.6985 110.384 79.8105 110.267 78.2745 110.032C76.7598 109.797 75.5332 109.424 74.5945 108.912C73.6558 108.4 72.9732 107.728 72.5465 106.896C72.1412 106.043 71.9385 105.008 71.9385 103.792C71.9385 102.939 72.0452 102.064 72.2585 101.168C72.4932 100.272 72.8452 99.28 73.3145 98.192L75.2985 98.8C74.4238 100.613 73.9865 102.171 73.9865 103.472C73.9865 104.773 74.6052 105.733 75.8425 106.352C77.0798 106.949 79.0318 107.248 81.6985 107.248H86.1785C87.6932 107.248 88.9412 107.205 89.9225 107.12C90.9038 107.035 91.6825 106.885 92.2585 106.672C92.8345 106.459 93.2292 106.171 93.4425 105.808C93.6772 105.424 93.7945 104.944 93.7945 104.368C93.7945 104.005 93.7732 103.557 93.7305 103.024C93.6878 102.469 93.5812 101.744 93.4105 100.848L92.9305 98.192L95.1705 97.84L95.5865 100.496C95.7358 101.456 95.8318 102.245 95.8745 102.864C95.9385 103.461 95.9705 103.963 95.9705 104.368C95.9705 105.477 95.7572 106.416 95.3305 107.184C94.9252 107.952 94.2425 108.571 93.2825 109.04C92.3438 109.509 91.1065 109.851 89.5705 110.064C88.0558 110.277 86.1785 110.384 83.9385 110.384ZM85.7305 98.192C85.3038 98.192 84.9625 98.0747 84.7065 97.84C84.4505 97.584 84.3225 97.1787 84.3225 96.624C84.3225 96.0693 84.4505 95.6747 84.7065 95.44C84.9625 95.184 85.3038 95.056 85.7305 95.056H86.0825C86.5092 95.056 86.8505 95.184 87.1065 95.44C87.3625 95.6747 87.4905 96.0693 87.4905 96.624C87.4905 97.1787 87.3625 97.584 87.1065 97.84C86.8505 98.0747 86.5092 98.192 86.0825 98.192H85.7305ZM81.6025 98.192C81.1758 98.192 80.8345 98.0747 80.5785 97.84C80.3225 97.584 80.1945 97.1787 80.1945 96.624C80.1945 96.0693 80.3225 95.6747 80.5785 95.44C80.8345 95.184 81.1758 95.056 81.6025 95.056H81.9545C82.3812 95.056 82.7225 95.184 82.9785 95.44C83.2345 95.6747 83.3625 96.0693 83.3625 96.624C83.3625 97.1787 83.2345 97.584 82.9785 97.84C82.7225 98.0747 82.3812 98.192 81.9545 98.192H81.6025ZM105.374 110C104.35 110 103.476 109.915 102.75 109.744C102.046 109.573 101.47 109.296 101.022 108.912C100.596 108.507 100.286 107.984 100.094 107.344C99.9023 106.704 99.8063 105.925 99.8063 105.008V86.32H102.174V105.008C102.174 105.819 102.398 106.395 102.846 106.736C103.294 107.077 103.988 107.248 104.926 107.248H106.046V109.36L105.406 110H105.374ZM105.391 107.888L106.031 107.248H110.671L110.735 107.12C109.647 106.267 108.805 105.349 108.207 104.368C107.61 103.365 107.311 102.203 107.311 100.88C107.311 100.027 107.45 99.2267 107.727 98.48C108.005 97.7333 108.399 97.0827 108.911 96.528C109.423 95.952 110.031 95.504 110.735 95.184C111.461 94.8427 112.25 94.672 113.103 94.672C113.957 94.672 114.735 94.8427 115.439 95.184C116.165 95.504 116.783 95.9413 117.295 96.496C117.807 97.0507 118.202 97.712 118.479 98.48C118.757 99.2267 118.895 100.027 118.895 100.88C118.895 102.203 118.597 103.365 117.999 104.368C117.402 105.349 116.559 106.267 115.471 107.12L115.535 107.248H120.175V109.36L119.535 110H119.087C117.999 110 116.954 109.883 115.951 109.648C114.949 109.392 113.999 109.019 113.103 108.528C112.207 109.019 111.258 109.392 110.255 109.648C109.253 109.883 108.207 110 107.119 110H105.391V107.888ZM113.103 106.288C114.191 105.691 115.055 104.987 115.695 104.176C116.335 103.344 116.655 102.352 116.655 101.2C116.655 100.048 116.346 99.1307 115.727 98.448C115.109 97.7653 114.287 97.424 113.263 97.424H112.943C111.919 97.424 111.098 97.7653 110.479 98.448C109.861 99.1307 109.551 100.048 109.551 101.2C109.551 102.352 109.871 103.344 110.511 104.176C111.151 104.987 112.015 105.691 113.103 106.288ZM114.895 90.832C114.469 90.832 114.127 90.7147 113.871 90.48C113.615 90.224 113.487 89.8187 113.487 89.264C113.487 88.7093 113.615 88.3147 113.871 88.08C114.127 87.824 114.469 87.696 114.895 87.696H115.247C115.674 87.696 116.015 87.824 116.271 88.08C116.527 88.3147 116.655 88.7093 116.655 89.264C116.655 89.8187 116.527 90.224 116.271 90.48C116.015 90.7147 115.674 90.832 115.247 90.832H114.895ZM110.767 90.832C110.341 90.832 109.999 90.7147 109.743 90.48C109.487 90.224 109.359 89.8187 109.359 89.264C109.359 88.7093 109.487 88.3147 109.743 88.08C109.999 87.824 110.341 87.696 110.767 87.696H111.119C111.546 87.696 111.887 87.824 112.143 88.08C112.399 88.3147 112.527 88.7093 112.527 89.264C112.527 89.8187 112.399 90.224 112.143 90.48C111.887 90.7147 111.546 90.832 111.119 90.832H110.767ZM119.547 107.888L120.188 107.248H121.308C123.121 107.248 124.028 106.341 124.028 104.528V99.472H126.268V104.528C126.268 106.341 127.174 107.248 128.988 107.248H130.108V109.36L129.468 110C126.524 110 124.796 108.955 124.284 106.864H124.124C123.889 108.037 123.43 108.859 122.748 109.328C122.065 109.776 120.998 110 119.547 110V107.888ZM127.036 116.4C126.609 116.4 126.268 116.272 126.012 116.016C125.756 115.781 125.628 115.387 125.628 114.832C125.628 114.277 125.756 113.872 126.012 113.616C126.268 113.381 126.609 113.264 127.036 113.264H127.388C127.814 113.264 128.156 113.381 128.411 113.616C128.668 113.872 128.796 114.277 128.796 114.832C128.796 115.387 128.668 115.781 128.411 116.016C128.156 116.272 127.814 116.4 127.388 116.4H127.036ZM122.908 116.4C122.481 116.4 122.14 116.272 121.884 116.016C121.628 115.781 121.5 115.387 121.5 114.832C121.5 114.277 121.628 113.872 121.884 113.616C122.14 113.381 122.481 113.264 122.908 113.264H123.26C123.686 113.264 124.028 113.381 124.284 113.616C124.54 113.872 124.668 114.277 124.668 114.832C124.668 115.387 124.54 115.781 124.284 116.016C124.028 116.272 123.686 116.4 123.26 116.4H122.908ZM129.454 107.888L130.094 107.248H131.214C133.027 107.248 133.934 106.341 133.934 104.528V99.472H136.174V104.528C136.174 106.341 137.08 107.248 138.894 107.248H140.014V109.36L139.374 110C136.43 110 134.702 108.955 134.19 106.864H134.03C133.795 108.037 133.336 108.859 132.654 109.328C131.971 109.776 130.904 110 129.454 110V107.888ZM134.862 116.4C134.435 116.4 134.094 116.272 133.838 116.016C133.582 115.781 133.454 115.387 133.454 114.832C133.454 114.277 133.582 113.872 133.838 113.616C134.094 113.381 134.435 113.264 134.862 113.264H135.214C135.64 113.264 135.982 113.381 136.238 113.616C136.494 113.872 136.622 114.277 136.622 114.832C136.622 115.387 136.494 115.781 136.238 116.016C135.982 116.272 135.64 116.4 135.214 116.4H134.862ZM161.408 110C160.597 110 159.915 109.936 159.36 109.808C158.827 109.659 158.336 109.381 157.888 108.976C156.779 109.659 155.221 110 153.216 110H139.36V107.888L140 107.248H141.664L142.848 105.232V86.32H145.216V98.032L144.832 101.776L144.992 101.84C145.696 100.901 146.4 100.123 147.104 99.504C147.808 98.864 148.523 98.352 149.248 97.968C149.995 97.584 150.741 97.3067 151.488 97.136C152.256 96.9653 153.045 96.88 153.856 96.88C155.925 96.88 157.536 97.456 158.688 98.608C159.84 99.7387 160.416 101.307 160.416 103.312C160.416 104.805 160.171 106.043 159.68 107.024C160.128 107.173 160.704 107.248 161.408 107.248H162.048V109.36L161.408 110ZM153.216 107.248C154.816 107.248 156.043 106.981 156.896 106.448C157.749 105.915 158.176 104.976 158.176 103.632C158.176 102.309 157.835 101.317 157.152 100.656C156.491 99.9733 155.552 99.632 154.336 99.632H153.376C152.523 99.632 151.744 99.7173 151.04 99.888C150.357 100.037 149.696 100.315 149.056 100.72C148.437 101.104 147.819 101.648 147.2 102.352C146.603 103.035 145.963 103.899 145.28 104.944L143.904 107.088L144 107.248H153.216ZM161.422 107.888L162.062 107.248H163.183C164.996 107.248 165.903 106.341 165.903 104.528V99.472H168.143V104.528C168.143 106.341 169.049 107.248 170.863 107.248H171.983V109.36L171.343 110C168.399 110 166.671 108.955 166.159 106.864H165.999C165.764 108.037 165.305 108.859 164.623 109.328C163.94 109.776 162.873 110 161.422 110V107.888ZM168.815 95.632C168.388 95.632 168.047 95.5147 167.791 95.28C167.535 95.024 167.407 94.6187 167.407 94.064C167.407 93.5093 167.535 93.1147 167.791 92.88C168.047 92.624 168.388 92.496 168.815 92.496H169.167C169.593 92.496 169.935 92.624 170.191 92.88C170.447 93.1147 170.575 93.5093 170.575 94.064C170.575 94.6187 170.447 95.024 170.191 95.28C169.935 95.5147 169.593 95.632 169.167 95.632H168.815ZM164.687 95.632C164.26 95.632 163.919 95.5147 163.663 95.28C163.407 95.024 163.279 94.6187 163.279 94.064C163.279 93.5093 163.407 93.1147 163.663 92.88C163.919 92.624 164.26 92.496 164.687 92.496H165.039C165.465 92.496 165.807 92.624 166.062 92.88C166.319 93.1147 166.447 93.5093 166.447 94.064C166.447 94.6187 166.319 95.024 166.062 95.28C165.807 95.5147 165.465 95.632 165.039 95.632H164.687ZM171.329 107.888L171.969 107.248H172.897C173.921 107.248 174.657 107.013 175.105 106.544C175.574 106.075 175.809 105.328 175.809 104.304V86.32H178.177V104.304C178.177 106.267 177.75 107.707 176.897 108.624C176.065 109.541 174.731 110 172.897 110H171.329V107.888ZM206.653 107.28L208.445 107.76C209.746 108.101 210.397 108.933 210.397 110.256C210.397 111.259 210.141 112.208 209.629 113.104C209.138 114 208.413 114.789 207.453 115.472C206.493 116.155 205.32 116.688 203.933 117.072C202.546 117.477 200.978 117.68 199.229 117.68C196.136 117.68 193.725 116.976 191.997 115.568C190.269 114.16 189.405 112.197 189.405 109.68C189.405 108.699 189.533 107.664 189.789 106.576C190.066 105.467 190.44 104.368 190.909 103.28L192.893 103.888C192.488 104.72 192.157 105.595 191.901 106.512C191.645 107.408 191.517 108.261 191.517 109.072C191.517 110.885 192.104 112.293 193.277 113.296C194.472 114.299 196.136 114.8 198.269 114.8H200.189C201.469 114.8 202.61 114.661 203.613 114.384C204.616 114.128 205.458 113.776 206.141 113.328C206.845 112.901 207.378 112.421 207.741 111.888C208.104 111.355 208.285 110.811 208.285 110.256V110.192L201.373 108.656V106.032H203.837C204.562 106.032 205.128 105.829 205.533 105.424C205.938 105.019 206.141 104.453 206.141 103.728C206.141 103.301 206.024 102.885 205.789 102.48C205.576 102.075 205.202 101.616 204.669 101.104L199.901 96.56V91.12L213.725 84.752V87.664L201.021 93.552V93.712L204.797 97.392C205.458 98.032 206.013 98.608 206.461 99.12C206.93 99.6107 207.304 100.08 207.581 100.528C207.858 100.976 208.061 101.424 208.189 101.872C208.317 102.299 208.381 102.779 208.381 103.312C208.381 104.059 208.232 104.773 207.933 105.456C207.634 106.139 207.208 106.704 206.653 107.152V107.28ZM201.117 124.08C200.69 124.08 200.349 123.952 200.093 123.696C199.837 123.461 199.709 123.067 199.709 122.512C199.709 121.957 199.837 121.552 200.093 121.296C200.349 121.061 200.69 120.944 201.117 120.944H201.469C201.896 120.944 202.237 121.061 202.493 121.296C202.749 121.552 202.877 121.957 202.877 122.512C202.877 123.067 202.749 123.461 202.493 123.696C202.237 123.952 201.896 124.08 201.469 124.08H201.117ZM196.989 124.08C196.562 124.08 196.221 123.952 195.965 123.696C195.709 123.461 195.581 123.067 195.581 122.512C195.581 121.957 195.709 121.552 195.965 121.296C196.221 121.061 196.562 120.944 196.989 120.944H197.341C197.768 120.944 198.109 121.061 198.365 121.296C198.621 121.552 198.749 121.957 198.749 122.512C198.749 123.067 198.621 123.461 198.365 123.696C198.109 123.952 197.768 124.08 197.341 124.08H196.989ZM216.366 110C215.598 110 214.958 109.776 214.446 109.328C213.955 108.859 213.71 108.176 213.71 107.28V104.816H215.95V107.248H220.27C220.995 107.248 221.593 107.227 222.062 107.184C222.531 107.141 222.905 107.077 223.182 106.992C223.459 106.885 223.651 106.747 223.758 106.576C223.865 106.405 223.918 106.181 223.918 105.904C223.918 105.648 223.865 105.339 223.758 104.976C223.651 104.613 223.459 104.059 223.182 103.312L220.11 94.864L222.382 94.032L225.646 102.992C225.966 103.845 226.243 104.549 226.478 105.104C226.734 105.637 226.99 106.064 227.246 106.384C227.502 106.704 227.758 106.928 228.014 107.056C228.291 107.184 228.601 107.248 228.942 107.248H229.742V109.36L229.102 110C228.526 110 228.014 109.947 227.566 109.84C227.139 109.733 226.755 109.573 226.414 109.36C226.073 109.125 225.763 108.827 225.486 108.464C225.209 108.101 224.942 107.653 224.686 107.12H224.526C224.398 108.165 223.993 108.912 223.31 109.36C222.627 109.787 221.614 110 220.27 110H216.366ZM220.654 90.608C220.227 90.608 219.886 90.4907 219.63 90.256C219.374 90 219.246 89.5947 219.246 89.04C219.246 88.4853 219.374 88.0907 219.63 87.856C219.886 87.6 220.227 87.472 220.654 87.472H221.006C221.433 87.472 221.774 87.6 222.03 87.856C222.286 88.0907 222.414 88.4853 222.414 89.04C222.414 89.5947 222.286 90 222.03 90.256C221.774 90.4907 221.433 90.608 221.006 90.608H220.654ZM229.11 107.888L229.75 107.248H230.678C231.702 107.248 232.438 107.013 232.886 106.544C233.355 106.075 233.59 105.328 233.59 104.304V86.32H235.958V104.304C235.958 106.267 235.531 107.707 234.678 108.624C233.846 109.541 232.513 110 230.678 110H229.11V107.888ZM240.744 86.32H243.112V110H240.744V86.32ZM266.439 110.384C264.199 110.384 262.311 110.267 260.775 110.032C259.26 109.797 258.033 109.424 257.095 108.912C256.156 108.4 255.473 107.728 255.047 106.896C254.641 106.043 254.439 105.008 254.439 103.792C254.439 102.939 254.545 102.064 254.759 101.168C254.993 100.272 255.345 99.28 255.815 98.192L257.799 98.8C256.924 100.613 256.487 102.171 256.487 103.472C256.487 104.859 257.105 105.883 258.343 106.544C259.58 107.184 261.532 107.504 264.199 107.504H268.679C270.193 107.504 271.441 107.461 272.423 107.376C273.404 107.291 274.172 107.141 274.727 106.928C275.303 106.693 275.697 106.384 275.911 106C276.145 105.616 276.263 105.125 276.263 104.528V86.32H278.631V104.528C278.631 106.341 279.537 107.248 281.351 107.248H282.471V109.36L281.831 110C278.801 110 277.031 108.912 276.519 106.736H276.359C276.231 107.461 275.985 108.059 275.623 108.528C275.26 108.997 274.705 109.371 273.959 109.648C273.212 109.925 272.231 110.117 271.015 110.224C269.82 110.331 268.295 110.384 266.439 110.384ZM263.655 101.136L268.199 98.864L268.167 98.736H266.151C265.468 98.736 264.935 98.576 264.551 98.256C264.167 97.9147 263.975 97.4027 263.975 96.72C263.975 96.2507 264.124 95.8027 264.423 95.376C264.743 94.928 265.34 94.448 266.215 93.936L268.167 92.784L269.127 94.32L265.575 96.464L265.607 96.624H268.071C268.625 96.624 269.052 96.784 269.351 97.104C269.649 97.4027 269.799 97.8293 269.799 98.384C269.799 98.7253 269.767 99.024 269.703 99.28C269.639 99.5147 269.532 99.728 269.383 99.92C269.233 100.112 269.02 100.304 268.743 100.496C268.465 100.667 268.124 100.859 267.719 101.072L264.455 102.736L263.655 101.136ZM281.829 107.888L282.469 107.248H283.589C285.402 107.248 286.309 106.341 286.309 104.528V86.32H288.677V104.528C288.677 106.341 289.583 107.248 291.397 107.248H292.517V109.36L291.877 110C288.847 110 287.077 108.955 286.565 106.864H286.405C286.17 108.037 285.711 108.859 285.029 109.328C284.346 109.776 283.279 110 281.829 110V107.888ZM291.891 107.888L292.531 107.248H293.651C295.465 107.248 296.371 106.341 296.371 104.528V99.472H298.611V104.528C298.611 106.341 299.518 107.248 301.331 107.248H302.451V109.36L301.811 110C298.867 110 297.139 108.955 296.627 106.864H296.467C296.233 108.037 295.774 108.859 295.091 109.328C294.409 109.776 293.342 110 291.891 110V107.888ZM299.379 116.4C298.953 116.4 298.611 116.272 298.355 116.016C298.099 115.781 297.971 115.387 297.971 114.832C297.971 114.277 298.099 113.872 298.355 113.616C298.611 113.381 298.953 113.264 299.379 113.264H299.731C300.158 113.264 300.499 113.381 300.755 113.616C301.011 113.872 301.139 114.277 301.139 114.832C301.139 115.387 301.011 115.781 300.755 116.016C300.499 116.272 300.158 116.4 299.731 116.4H299.379ZM295.251 116.4C294.825 116.4 294.483 116.272 294.227 116.016C293.971 115.781 293.843 115.387 293.843 114.832C293.843 114.277 293.971 113.872 294.227 113.616C294.483 113.381 294.825 113.264 295.251 113.264H295.603C296.03 113.264 296.371 113.381 296.627 113.616C296.883 113.872 297.011 114.277 297.011 114.832C297.011 115.387 296.883 115.781 296.627 116.016C296.371 116.272 296.03 116.4 295.603 116.4H295.251ZM301.797 107.888L302.438 107.248H303.366C304.39 107.248 305.126 107.013 305.574 106.544C306.043 106.075 306.278 105.328 306.278 104.304V86.32H308.646V104.304C308.646 106.267 308.219 107.707 307.366 108.624C306.534 109.541 305.2 110 303.366 110H301.797V107.888ZM314.647 110C313.879 110 313.239 109.776 312.727 109.328C312.237 108.859 311.991 108.176 311.991 107.28V104.816H314.231V107.248H319.511C320.109 107.248 320.599 107.184 320.983 107.056C321.367 106.907 321.666 106.715 321.879 106.48C322.114 106.245 322.274 105.979 322.359 105.68C322.445 105.381 322.487 105.072 322.487 104.752C322.487 104.027 322.253 103.291 321.783 102.544C321.335 101.776 320.546 100.827 319.415 99.696L316.055 96.016L318.135 94.032L321.335 97.712C321.975 98.4587 322.509 99.1413 322.935 99.76C323.362 100.357 323.714 100.944 323.991 101.52C324.269 102.096 324.461 102.661 324.567 103.216C324.695 103.771 324.759 104.357 324.759 104.976C324.759 106.533 324.279 107.76 323.319 108.656C322.359 109.552 320.983 110 319.191 110H314.647Z" fill="#C8A54B"/>
</svg>
