<svg width="95" height="111" viewBox="0 0 95 111" fill="none" xmlns="http://www.w3.org/2000/svg">
<path d="M14.0451 21.799L32.7533 10.8935C37.4129 8.17727 42.1502 3.4106 47.3726 3.5279C52.0964 3.63399 57.3097 8.36617 61.5416 10.7937L80.7823 21.8307C89.5827 26.8788 95 36.1816 95 46.2461V70.2292C95 79.7147 90.1838 88.5657 82.1805 93.7884L62.951 106.337C53.359 112.596 40.9076 112.551 31.3629 106.221L12.6433 93.8072C4.74168 88.5673 0 79.7752 0 70.3639V46.1146C0 36.1208 5.34213 26.8722 14.0451 21.799Z" fill="#0F0F10"/>
<path d="M33.9375 24.1518L42.01 21.9193C51.9675 19.1655 57.9958 13.2472 69.9352 29.2184L76.0971 35.3607C83.2494 42.4902 86.0324 52.8436 83.4046 62.5464L80.601 72.8984C78.1249 82.041 71.1814 89.3468 62.1102 92.354L53.5258 95.1998C42.5905 98.8249 30.5248 95.5787 22.951 86.9738L17.2314 80.4755C10.998 73.3935 8.73333 63.7079 11.19 54.637L14.0633 44.0277C16.6725 34.3932 24.2282 26.8369 33.9375 24.1518Z" fill="white"/>
<path d="M82.011 4.03176C82.011 6.25843 80.1865 8.06351 77.936 8.06351C75.6854 8.06351 73.8609 6.25843 73.8609 4.03176C73.8609 1.80508 75.6854 0 77.936 0C80.1865 0 82.011 1.80508 82.011 4.03176Z" fill="#C8A54B"/>
</svg>
