<svg width="407" height="571" viewBox="0 0 407 571" fill="none" xmlns="http://www.w3.org/2000/svg">
<path d="M203 570.012C195.424 560.598 180.529 548.335 154.405 548.335C120.976 548.335 104.347 526.4 102.884 514.653C101.149 500.857 102.859 487.183 102.884 487.035L103.905 479.02H52.395V441.607L47.4876 439.999C19.0762 430.695 0 404.402 0 374.55V195.45C0 165.61 19.0885 139.306 47.4876 130.001L52.395 128.393V90.98H103.905L102.884 82.9647C102.871 82.8296 101.162 69.082 102.884 55.3589C104.36 43.612 120.976 21.6771 154.405 21.6771C180.529 21.6771 195.411 9.42696 203 0C210.576 9.41469 225.471 21.6771 251.595 21.6771C285.024 21.6771 301.653 43.612 303.129 55.3589C304.851 69.082 303.141 82.8419 303.129 82.9769L302.12 90.98H353.617V128.393L358.525 130.001C386.936 139.306 406.012 165.61 406.012 195.45V374.55C406.012 404.39 386.924 430.695 358.525 439.999L353.617 441.607V479.02H302.108L303.129 487.035C303.141 487.17 304.851 500.918 303.129 514.653C301.653 526.4 285.036 548.335 251.607 548.335C225.483 548.335 210.601 560.585 203.012 570.012H203Z" fill="#872928"/>
</svg>
